<?xml version="1.0" encoding="utf-8" ?>
<svg baseProfile="full" height="200mm" version="1.1" viewBox="0,0,200,200" width="200mm" xmlns="http://www.w3.org/2000/svg" xmlns:ev="http://www.w3.org/2001/xml-events" xmlns:xlink="http://www.w3.org/1999/xlink"><defs /><rect fill="#1a1a1a" height="200" width="200" x="0" y="0" /><text alignment-baseline="middle" fill="#e1ed5e" style="dominant-baseline: central; font-size:9.0px; font-family:Arial;" text-anchor="middle" x="100.0" y="100.0">2024</text><line stroke="#e1ed5e" stroke-width="0.3" x1="100.0" x2="100.0" y1="15.0" y2="10.0" /><path d="M 100.0 14.0 a86.0,86.0 0 0,1 42.35913384403234,11.155469271406648" fill="none" id="id61" stroke="none" /><text fill="#e1ed5e" style="font-size:6.75px; font-family:Arial;" text-anchor="middle"><textPath startOffset="22.145653131862478" xlink:href="#id61">January</textPath></text><line stroke="#e1ed5e" stroke-width="0.3" x1="143.13028292997686" x2="145.6673583964461" y1="26.7553504044142" y2="22.446841604673864" /><path d="M 143.63769802327073 25.89364864446614 a86.0,86.0 0 0,1 29.32050498858742,28.57503671076993" fill="none" id="id62" stroke="none" /><text fill="#e1ed5e" style="font-size:6.75px; font-family:Arial;" text-anchor="middle"><textPath startOffset="20.669276256404974" xlink:href="#id62">February</textPath></text><line stroke="#e1ed5e" stroke-width="0.3" x1="172.87174338648825" x2="177.1583165268699" y1="56.24261187166439" y2="53.66864786411523" /><path d="M 173.72905801456457 55.72781907015455 a86.0,86.0 0 0,1 12.242430191666344,42.057860355516425" fill="none" id="id63" stroke="none" /><text fill="#e1ed5e" style="font-size:6.75px; font-family:Arial;" text-anchor="middle"><textPath startOffset="22.145653131862474" xlink:href="#id63">March</textPath></text><path d="M 119.31412917781788 91.75594674310238 l 44.62428690929927 -19.047454557457087 a69.51940341020128,69.51940341020128 0 0,0 0.45907355029700914,1.1016094008548645 l -44.944686304132766 18.278612647160944" fill="red" stroke="none" /><path d="M 120.16314734710363 94.1308016681162 l 47.20945642617102 -13.741984727668305 a70.1688409494266,70.1688409494266 0 0,0 0.3267245274958928,1.1594300856362285 l -47.4383994457415 12.929546718129064" fill="red" stroke="none" /><line stroke="#e1ed5e" stroke-width="0.3" x1="184.99686870605535" x2="189.99668451229388" y1="99.2704041080226" y2="99.22748670261217" /><path d="M 185.99683186730306 99.26182062694052 a86.0,86.0 0 0,1 -10.086455211305974,41.156179273409016" fill="none" id="id64" stroke="none" /><text fill="#e1ed5e" style="font-size:6.75px; font-family:Arial;" text-anchor="middle"><textPath startOffset="21.40746469413373" xlink:href="#id64">April</textPath></text><path d="M 120.96210409425399 101.26102812881392 l 62.752775437113286 3.775051141408754 a83.86622174253054,83.86622174253054 0 0,0 -0.09878657704582927,1.4363351495729089 l -62.67872489890239 -4.851729715136006" fill="red" stroke="none" /><path d="M 120.592083275326 104.11899336999214 l 48.36651308947127 9.67465720109448 a70.32462448303772,70.32462448303772 0 0,0 -0.2469475616569593,1.1817334785521598 l -48.19330781698994 -10.50350713093205" fill="red" stroke="none" /><path d="M 119.83427380445688 106.89939002012753 l 47.4230359409462 16.49619361519511 a71.21024538524263,71.21024538524263 0 0,0 -0.41152682243248195,1.151113764563175 l -47.13286894846977 -17.307842336139206" fill="red" stroke="none" /><line stroke="#e1ed5e" stroke-width="0.3" x1="174.33088141563837" x2="178.70328620479359" y1="141.23008692659167" y2="143.65538615756765" /><path d="M 175.20536237346943 141.71514677278685 a86.0,86.0 0 0,1 -30.301960400862466,31.631185727798858" fill="none" id="id65" stroke="none" /><text fill="#e1ed5e" style="font-size:6.75px; font-family:Arial;" text-anchor="middle"><textPath startOffset="22.145653131862474" xlink:href="#id65">May</textPath></text><path d="M 118.36410011445183 110.18625677009912 l 42.18631731513416 23.400039080524373 a69.24155053046343,69.24155053046343 0 0,0 -0.5854756727807899,1.0344794146082095 l -41.77840827733199 -24.120775265231703" fill="red" stroke="none" /><path d="M 117.62189284568427 111.42229804090321 l 40.7274947768227 26.39907005870423 a69.53493309731141,69.53493309731141 0 0,0 -0.6578519927484798,0.9960717635246891 l -40.268318345153496 -27.094321700567978" fill="red" stroke="none" /><path d="M 114.65682725009322 115.03919595460226 l 34.595150005783836 35.4976715723066 a70.56721790637467,70.56721790637467 0 0,0 -0.8747899246174929,0.8380289592348903 l -33.98068759530103 -36.08631266184707" fill="red" stroke="none" /><line stroke="#e1ed5e" stroke-width="0.3" x1="143.1302829299769" x2="145.66735839644613" y1="173.24464959558577" y2="177.55315839532614" /><path d="M 143.63769802327073 174.10635135553383 a86.0,86.0 0 0,1 -40.68552437913181,11.842963189579606" fill="none" id="id66" stroke="none" /><text fill="#e1ed5e" style="font-size:6.75px; font-family:Arial;" text-anchor="middle"><textPath startOffset="21.407464694133747" xlink:href="#id66">June</textPath></text><path d="M 108.4095320186766 119.2426549942271 l 19.628141226299892 44.913028329856175 a70.01473290509739,70.01473290509739 0 0,0 -1.1054490310781409,0.47185045730462716 l -18.85425712005132 -45.24335343682021" fill="red" stroke="none" /><path d="M 106.0420521117495 120.11202640906438 l 14.217082688678186 47.3240444150612 a70.4134659781663,70.4134659781663 0 0,0 -1.1606150591357445,0.3378381287293025 l -13.402607617160834 -47.561126238093024" fill="red" stroke="none" /><path d="M 103.58742460773223 120.69131181640829 l 8.697868028281835 50.1669914186475 a71.9154194349419,71.9154194349419 0 0,0 -1.2181872652563404,0.20045225092330293 l -7.835403259972423 -50.30890966806648" fill="red" stroke="none" /><path d="M 101.08105385017728 120.97215588758144 l 3.2431615505318443 62.916467662744324 a84.0,84.0 0 0,0 -1.4406969575966817,0.06186972629667631 l -2.162638832334333 -62.96286995746683" fill="red" stroke="none" /><line stroke="#e1ed5e" stroke-width="0.3" x1="101.45913802915013" x2="101.54496967792366" y1="184.9874750549273" y2="189.98673829345242" /><path d="M 101.47630435890484 185.9873277026323 a86.0,86.0 0 0,1 -42.54439059252881,-10.42667462771756" fill="none" id="id67" stroke="none" /><text fill="#e1ed5e" style="font-size:6.75px; font-family:Arial;" text-anchor="middle"><textPath startOffset="22.145653131862474" xlink:href="#id67">July</textPath></text><path d="M 98.55909050195518 120.95050786540614 l -3.9293498362617676 57.1318842454974 a78.26684894052269,78.26684894052269 0 0,0 -1.3395967709746104,-0.10369326227553147 l 4.909515602011614 -57.05601321622682" fill="red" stroke="none" /><path d="M 93.61358852112213 120.00534299687104 l -14.784595524575229 46.31253490592505 a69.61517411506222,69.61517411506222 0 0,0 -1.1353149642429607,-0.37320057896721637 l 15.577433226465933 -46.05191340555581" fill="red" stroke="none" /><path d="M 91.26138138417905 119.09545874513695 l -20.966332938601578 45.815221291501615 a71.38473597114063,71.38473597114063 0 0,0 -1.1099010453276783,-0.5194897314025094 l 21.749722697800745 -45.44855532852858" fill="red" stroke="none" /><line stroke="#e1ed5e" stroke-width="0.3" x1="58.13341422392154" x2="55.67067388415222" y1="173.97424548756322" y2="178.32567169271397" /><path d="M 57.64086615596768 174.84453072859336 a86.0,86.0 0 0,1 -31.369924170532247,-30.572349798747897" fill="none" id="id68" stroke="none" /><text fill="#e1ed5e" style="font-size:6.75px; font-family:Arial;" text-anchor="middle"><textPath startOffset="22.145653131862474" xlink:href="#id68">August</textPath></text><path d="M 89.03521579738668 117.91015095944536 l -30.61296508664287 50.003977815388964 a79.63063558207371,79.63063558207371 0 0,0 -1.1597097527748774,-0.7237446574939809 l 31.46683896820746 -49.47109736105344" fill="red" stroke="none" /><path d="M 86.96720088162412 116.46651593811092 l -36.330091852105014 45.90188424466954 a79.5393760745144,79.5393760745144 0 0,0 -1.0633627885401444,-0.856569790945667 l 37.11270541100042 -45.27146615993046" fill="red" stroke="none" /><path d="M 85.86807049272751 115.53346607816431 l -34.87237592649238 38.3308498843277 a72.8202340366528,72.8202340366528 0 0,0 -0.9174317129546504,-0.849161097050634 l 35.525237410761 -37.72657104114469" fill="red" stroke="none" /><line stroke="#e1ed5e" stroke-width="0.3" x1="26.387840678322732" x2="22.057713659400548" y1="142.50000000000003" y2="145.00000000000006" /><path d="M 25.521815274538298 143.00000000000003 a86.0,86.0 0 0,1 -11.493303480769221,-40.785679425670985" fill="none" id="id69" stroke="none" /><text fill="#e1ed5e" style="font-size:6.75px; font-family:Arial;" text-anchor="middle"><textPath startOffset="21.40746469413373" xlink:href="#id69">September</textPath></text><path d="M 80.68587082218212 108.24405325689762 l -44.67840137958221 19.07055280697558 a69.57824136584915,69.57824136584915 0 0,0 -0.4594620885736047,-1.1025417512763076 l 44.9991893126923 -18.300778546257995" fill="red" stroke="none" /><path d="M 79.34024301695615 103.76489593502545 l -55.500645732106626 10.114066476173546 a77.41467909476454,77.41467909476454 0 0,0 -0.22702843527767555,-1.30943968422271 l 55.66608898487654 -9.159833759030244" fill="red" stroke="none" /><line stroke="#e1ed5e" stroke-width="0.3" x1="15.003131293944662" x2="10.003315487706104" y1="100.72959589197737" y2="100.7725132973878" /><path d="M 14.003168132696942 100.73817937305945 a86.0,86.0 0 0,1 10.791469493833604,-42.45332614584628" fill="none" id="id70" stroke="none" /><text fill="#e1ed5e" style="font-size:6.75px; font-family:Arial;" text-anchor="middle"><textPath startOffset="22.145653131862435" xlink:href="#id70">October</textPath></text><line stroke="#e1ed5e" stroke-width="0.3" x1="26.387840678322718" x2="22.05771365940052" y1="57.49999999999999" y2="54.99999999999999" /><path d="M 25.521815274538284 56.99999999999999 a86.0,86.0 0 0,1 29.574782752854787,-30.34633250058573" fill="none" id="id71" stroke="none" /><text fill="#e1ed5e" style="font-size:6.75px; font-family:Arial;" text-anchor="middle"><textPath startOffset="21.40746469413373" xlink:href="#id71">November</textPath></text><path d="M 81.99639281039701 89.18935116829357 l -43.44043207020135 -26.08473131316417 a71.67034977307483,71.67034977307483 0 0,0 0.642412182189516,-1.0493320204567758 l 42.98625192355644 26.826600449745488" fill="red" stroke="none" /><path d="M 89.03521579738668 82.08984904055464 l -25.579783977475287 -41.782654731808805 a69.99097452359818,69.99097452359818 0 0,0 1.0300913124698732,-0.6185402362107949 l 24.85875990844798 42.21560896855553" fill="red" stroke="none" /><line stroke="#e1ed5e" stroke-width="0.3" x1="56.869717070023135" x2="54.33264160355391" y1="26.7553504044142" y2="22.446841604673864" /><path d="M 56.362301976729285 25.89364864446614 a86.0,86.0 0 0,1 42.16139366436587,-11.88097634709845" fill="none" id="id72" stroke="none" /><text fill="#e1ed5e" style="font-size:6.75px; font-family:Arial;" text-anchor="middle"><textPath startOffset="22.145653131862474" xlink:href="#id72">December</textPath></text></svg>