<?xml version="1.0" encoding="utf-8" ?>
<svg baseProfile="full" height="200mm" version="1.1" viewBox="0,0,200,200" width="200mm" xmlns="http://www.w3.org/2000/svg" xmlns:ev="http://www.w3.org/2001/xml-events" xmlns:xlink="http://www.w3.org/1999/xlink"><defs /><rect fill="#1a1a1a" height="200" width="200" x="0" y="0" /><rect fill="#1a1a1a" height="200" width="180" x="10" y="0" /><text alignment-baseline="middle" fill="#e1ed5e" style="dominant-baseline: central; font-size:9.0px; font-family:Arial;" text-anchor="middle" x="100.0" y="100.0">2025</text><line stroke="#e1ed5e" stroke-width="0.3" x1="100.0" x2="100.0" y1="15.0" y2="10.0" /><path d="M 100.0 14.0 a86.0,86.0 0 0,1 42.46469731375804,11.215312516191453" fill="none" id="id73" stroke="none" /><text fill="#e1ed5e" style="font-size:6.75px; font-family:Arial;" text-anchor="middle"><textPath startOffset="22.20632615414155" xlink:href="#id73">January</textPath></text><line stroke="#e1ed5e" stroke-width="0.3" x1="143.23703022742887" x2="145.7803849466894" y1="26.81831364943548" y2="22.513508569990506" /><path d="M 143.74570117128098 25.957352633546492 a86.0,86.0 0 0,1 28.547481713284135,27.462654790039103" fill="none" id="id74" stroke="none" /><text fill="#e1ed5e" style="font-size:6.75px; font-family:Arial;" text-anchor="middle"><textPath startOffset="19.985693538727396" xlink:href="#id74">February</textPath></text><line stroke="#e1ed5e" stroke-width="0.3" x1="172.23445277983987" x2="176.4835382374775" y1="55.19839476539836" y2="52.563006222186495" /><path d="M 173.08426987136738 54.67131705675599 a86.0,86.0 0 0,1 12.851231095245387,41.99856678651699" fill="none" id="id75" stroke="none" /><text fill="#e1ed5e" style="font-size:6.75px; font-family:Arial;" text-anchor="middle"><textPath startOffset="22.20632615414155" xlink:href="#id75">March</textPath></text><path d="M 120.6074358757038 95.95851677861258 l 32.245689647835015 -6.323950949542419 a53.85995825433612,53.85995825433612 0 0,0 0.17059314921582694,0.9113154245103249 l -32.3497685209607 5.767957447569532" fill="red" stroke="none" /><path d="M 120.96714384426684 98.82574320788733 l 38.255952038425825 -2.142509816955414 a59.3159002854179,59.3159002854179 0 0,0 0.04831814420310557,1.0199196568439066 l -38.28716379086242 1.4836790534885078" fill="red" stroke="none" /><line stroke="#e1ed5e" stroke-width="0.3" x1="184.98032266829074" x2="189.97916517819016" y1="98.17113171792111" y2="98.06355123074" /><path d="M 185.9800911702706 98.14961562048488 a86.0,86.0 0 0,1 -9.607161424134198,41.387399972396054" fill="none" id="id76" stroke="none" /><text fill="#e1ed5e" style="font-size:6.75px; font-family:Arial;" text-anchor="middle"><textPath startOffset="21.466115282336823" xlink:href="#id76">April</textPath></text><path d="M 120.9764740272857 100.99374915477107 l 37.3851785185156 1.7711026889178056 a58.42710752377175,58.42710752377175 0 0,0 -0.056239288102005666,1.0041902684781245 l -37.349152879526066 -2.4143646737313533" fill="red" stroke="none" /><path d="M 120.81339534386255 102.79330883721812 l 34.46864127541749 4.625942028719317 a55.77767345620586,55.77767345620586 0 0,0 -0.1359008378320428,0.9504901432714952 l -34.38390638656884 -5.218577643971221" fill="red" stroke="none" /><path d="M 120.41448212921028 104.9243191809786 l 36.51651016476973 8.80840132454204 a58.56385827504844,58.56385827504844 0 0,0 -0.24482114989413462,0.9779387959302823 l -36.359477700580534 -9.435667959869717" fill="red" stroke="none" /><path d="M 119.12269723197855 108.67885076344098 l 36.30118433333841 16.47532027220246 a60.864923956714875,60.864923956714875 0 0,0 -0.44119935096787855,0.9503041510479412 l -36.0122103655307 -17.09774449052923" fill="red" stroke="none" /><path d="M 118.97047184881838 109.00673069616215 l 30.129723686566223 14.304879148885426 a54.35310805446843,54.35310805446843 0 0,0 -0.40854576663173253,0.8417252865202798 l -29.879024663319775 -14.82139339137098" fill="red" stroke="none" /><line stroke="#e1ed5e" stroke-width="0.3" x1="174.80103733775053" x2="179.2010983576182" y1="140.37084112569926" y2="142.7455964860345" /><path d="M 175.68104954172406 140.8457921977663 a86.0,86.0 0 0,1 -30.038265399797805,32.042727171017184" fill="none" id="id77" stroke="none" /><text fill="#e1ed5e" style="font-size:6.75px; font-family:Arial;" text-anchor="middle"><textPath startOffset="22.206326154141568" xlink:href="#id77">May</textPath></text><path d="M 117.14729908036423 112.12312394758627 l 26.458299973542218 18.705992618334705 a53.403021422810816,53.403021422810816 0 0,0 -0.5371332034617253,0.7460310406107624 l -26.13238697770489 -19.1586572643966" fill="red" stroke="none" /><path d="M 116.71984013943494 112.70617746262583 l 25.572917997267137 19.434039536303583 a53.11940266557833,53.11940266557833 0 0,0 -0.5595071306225852,0.7232383886499042 l -25.234604049426483 -19.871355919066737" fill="red" stroke="none" /><path d="M 114.81725581225074 114.88116024355365 l 24.227249819188827 24.331738034911528 a55.33646909047209,55.33646909047209 0 0,0 -0.680770448803755,0.6662771673406735 l -23.80482941800928 -24.745165305174773" fill="red" stroke="none" /><path d="M 111.45004920935366 117.60387380957326 l 20.713192309068305 31.845489651205135 a58.98909773550116,58.98909773550116 0 0,0 -0.855954836230448,0.5463108745836718 l -20.161955670790924 -32.197314954612615" fill="red" stroke="none" /><line stroke="#e1ed5e" stroke-width="0.3" x1="143.8653032363475" x2="146.44561519142675" y1="172.8068346515853" y2="177.08958963109032" /><path d="M 144.38136562736335 173.6633856474863 a86.0,86.0 0 0,1 -40.68145358897372,12.25698825130547" fill="none" id="id78" stroke="none" /><text fill="#e1ed5e" style="font-size:6.75px; font-family:Arial;" text-anchor="middle"><textPath startOffset="21.466115282336833" xlink:href="#id78">June</textPath></text><path d="M 109.89434966115114 118.52300852407294 l 17.903756892712565 33.51725508941244 a58.99935393664077,58.99935393664077 0 0,0 -0.8999061814745359,0.47078838195472406 l -17.32415980871153 -33.820472890311876" fill="red" stroke="none" /><path d="M 104.13013068566511 120.58985236759428 l 8.790462596996758 43.82290559066794 a65.69585313066297,65.69585313066297 0 0,0 -1.1106740690345827,0.2128633287570414 l -8.03482091339047 -43.96772611777345" fill="red" stroke="none" /><path d="M 102.70371172650421 120.8252237178851 l 4.291050370031165 33.051631601329866 a54.32901835920421,54.32901835920421 0 0,0 -0.9284378486503089,0.1124208936985677 l -3.7214850983294756 -33.120598023753786" fill="red" stroke="none" /><line stroke="#e1ed5e" stroke-width="0.3" x1="102.19456741930631" x2="102.32365962044197" y1="184.97166512339345" y2="189.96999836594603" /><path d="M 102.22038585953345 185.97133177190398 a86.0,86.0 0 0,1 -42.740103519485714,-10.115201625700543" fill="none" id="id79" stroke="none" /><text fill="#e1ed5e" style="font-size:6.75px; font-family:Arial;" text-anchor="middle"><textPath startOffset="22.20632615414155" xlink:href="#id79">July</textPath></text><path d="M 95.16358092515715 120.4354850818985 l -11.694389075846141 49.412697659814725 a71.77768629897909,71.77768629897909 0 0,0 -1.199872428761375,-0.29489945023839087 l 12.543214789350728 -49.2040769512623" fill="red" stroke="none" /><path d="M 94.11515582081647 120.15858648285463 l -10.2800531445673 35.21441418893319 a57.684253560960826,57.684253560960826 0 0,0 -0.9507601780087098,-0.2864562424293588 l 10.884688297016254 -35.0322425773981" fill="red" stroke="none" /><path d="M 92.7421414339146 119.70592522655815 l -13.014180872752238 35.33500588751226 a58.65543181081896,58.65543181081896 0 0,0 -0.9444356290191662,-0.3571047427506788 l 13.620486722531687 -35.10575289465495" fill="red" stroke="none" /><path d="M 91.40352486487194 119.15986991738527 l -9.037647405320199 20.14315704090618 a43.07772284900549,43.07772284900549 0 0,0 -0.6739243154933049,-0.30936559934263347 l 9.383039716580923 -19.984604371229473" fill="red" stroke="none" /><line stroke="#e1ed5e" stroke-width="0.3" x1="58.666819895761336" x2="56.23545636021788" y1="174.27360380694188" y2="178.64263932499728" /><path d="M 58.180547188652646 175.14741091055294 a86.0,86.0 0 0,1 -31.652253787137756,-30.449443065178592" fill="none" id="id80" stroke="none" /><text fill="#e1ed5e" style="font-size:6.75px; font-family:Arial;" text-anchor="middle"><textPath startOffset="22.20632615414155" xlink:href="#id80">August</textPath></text><path d="M 89.4739219176387 118.17145234162733 l -19.43549572945402 33.55202019406351 a59.7746895971131,59.7746895971131 0 0,0 -0.885895423901292,-0.5234026316102436 l 20.010159024383693 -33.21249899015952" fill="red" stroke="none" /><path d="M 89.1626897886671 117.98757091392108 l -16.535417632519295 27.44518625527653 a53.041508779529245,53.041508779529245 0 0,0 -0.7779946652889557,-0.47790786656717954 l 17.00539149774056 -27.156489921880972" fill="red" stroke="none" /><path d="M 86.51685102203217 116.09983520530335 l -29.765654299133523 35.542300228021844 a67.35999656335586,67.35999656335586 0 0,0 -0.8825266929633344,-0.7521083937510837 l 30.373046468673913 -35.02466744404781" fill="red" stroke="none" /><line stroke="#e1ed5e" stroke-width="0.3" x1="26.63291911575756" x2="22.317208475507996" y1="142.92168965132927" y2="145.44649492493687" /><path d="M 25.769776987707644 143.4266507060508 a86.0,86.0 0 0,1 -11.730757126820373,-40.83630448921669" fill="none" id="id81" stroke="none" /><text fill="#e1ed5e" style="font-size:6.75px; font-family:Arial;" text-anchor="middle"><textPath startOffset="21.46611528233685" xlink:href="#id81">September</textPath></text><path d="M 81.51974371655577 109.97397251340807 l -55.44076885033272 29.92191754022421 a84.0,84.0 0 0,0 -0.6757899671004557,-1.2783399396554953 l 55.94761132565806 -28.96316258548259" fill="red" stroke="none" /><path d="M 80.45479744820244 107.68017299344265 l -41.160121119705394 16.17362878653395 a65.22377006445083,65.22377006445083 0 0,0 -0.4016098369433872,-1.0484765550500745 l 41.43242523624229 -15.462728664650717" fill="red" stroke="none" /><line stroke="#e1ed5e" stroke-width="0.3" x1="15.007084014347285" x2="10.007500721073583" y1="101.09737516637583" y2="101.16192664675087" /><path d="M 14.007167355692545 101.11028546245083 a86.0,86.0 0 0,1 10.666146001902534,-42.60595125391555" fill="none" id="id82" stroke="none" /><text fill="#e1ed5e" style="font-size:6.75px; font-family:Arial;" text-anchor="middle"><textPath startOffset="22.20632615414155" xlink:href="#id82">October</textPath></text><line stroke="#e1ed5e" stroke-width="0.3" x1="26.266209847984243" x2="21.928928074336255" y1="57.711370442889674" y2="55.22380399835377" /><path d="M 25.398753493254645 57.213857153982495 a86.0,86.0 0 0,1 29.58750427330803,-30.492523968695096" fill="none" id="id83" stroke="none" /><text fill="#e1ed5e" style="font-size:6.75px; font-family:Arial;" text-anchor="middle"><textPath startOffset="21.46611528233685" xlink:href="#id83">November</textPath></text><line stroke="#e1ed5e" stroke-width="0.3" x1="56.762969772571076" x2="54.21961505331055" y1="26.818313649435495" y2="22.513508569990535" /><path d="M 56.25429882871897 25.957352633546506 a86.0,86.0 0 0,1 42.265352541879196,-11.944610805530505" fill="none" id="id84" stroke="none" /><text fill="#e1ed5e" style="font-size:6.75px; font-family:Arial;" text-anchor="middle"><textPath startOffset="22.20632615414155" xlink:href="#id84">December</textPath></text></svg>