<?xml version="1.0" encoding="utf-8" ?>
<svg baseProfile="full" height="200mm" version="1.1" viewBox="0,0,200,200" width="200mm" xmlns="http://www.w3.org/2000/svg" xmlns:ev="http://www.w3.org/2001/xml-events" xmlns:xlink="http://www.w3.org/1999/xlink"><defs /><rect fill="#1a1a1a" height="200" width="200" x="0" y="0" /><text alignment-baseline="middle" fill="#e1ed5e" style="dominant-baseline: central; font-size:9.0px; font-family:Arial;" text-anchor="middle" x="100.0" y="100.0">2024</text><line stroke="#e1ed5e" stroke-width="0.3" x1="100.0" x2="100.0" y1="15.0" y2="10.0" /><path d="M 100.0 14.0 a86.0,86.0 0 0,1 42.35913384403234,11.155469271406648" fill="none" id="id61" stroke="none" /><text fill="#e1ed5e" style="font-size:6.75px; font-family:Arial;" text-anchor="middle"><textPath startOffset="22.145653131862478" xlink:href="#id61">January</textPath></text><line stroke="#e1ed5e" stroke-width="0.3" x1="143.13028292997686" x2="145.6673583964461" y1="26.7553504044142" y2="22.446841604673864" /><path d="M 143.63769802327073 25.89364864446614 a86.0,86.0 0 0,1 29.32050498858742,28.57503671076993" fill="none" id="id62" stroke="none" /><text fill="#e1ed5e" style="font-size:6.75px; font-family:Arial;" text-anchor="middle"><textPath startOffset="20.669276256404974" xlink:href="#id62">February</textPath></text><line stroke="#e1ed5e" stroke-width="0.3" x1="172.87174338648825" x2="177.1583165268699" y1="56.24261187166439" y2="53.66864786411523" /><path d="M 173.72905801456457 55.72781907015455 a86.0,86.0 0 0,1 12.242430191666344,42.057860355516425" fill="none" id="id63" stroke="none" /><text fill="#e1ed5e" style="font-size:6.75px; font-family:Arial;" text-anchor="middle"><textPath startOffset="22.145653131862474" xlink:href="#id63">March</textPath></text><path d="M 119.31412917781788 91.75594674310238 l 14.617604401931942 -6.239386102697847 a36.89353004810194,36.89353004810194 0 0,0 0.24362757721373413,0.5846174958076045 l -14.72255782368216 5.987536097448965" fill="red" stroke="none" /><path d="M 120.16314734710363 94.1308016681162 l 15.46442992961763 -4.501470171495006 a37.10626669197157,37.10626669197157 0 0,0 0.17277651002969954,0.6131228816978899 l -15.53942493172191 4.235339365894103" fill="red" stroke="none" /><line stroke="#e1ed5e" stroke-width="0.3" x1="184.99686870605535" x2="189.99668451229388" y1="99.2704041080226" y2="99.22748670261217" /><path d="M 185.99683186730306 99.26182062694052 a86.0,86.0 0 0,1 -10.086455211305974,41.156179273409016" fill="none" id="id64" stroke="none" /><text fill="#e1ed5e" style="font-size:6.75px; font-family:Arial;" text-anchor="middle"><textPath startOffset="21.40746469413373" xlink:href="#id64">April</textPath></text><path d="M 120.96210409425399 101.26102812881392 l 20.555964251651453 1.2365957644171424 a41.59312592589447,41.59312592589447 0 0,0 -0.0489928180080582,0.7123448213916385 l -20.53170747247833 -1.5892840099631242" fill="red" stroke="none" /><path d="M 120.592083275326 104.11899336999214 l 15.84344767412791 3.1691332564561523 a37.15729679742269,37.15729679742269 0 0,0 -0.13047924406764094,0.6243904168817058 l -15.786710719235906 -3.4406401246232674" fill="red" stroke="none" /><path d="M 119.83427380445688 106.89939002012753 l 15.534392299250236 5.4036680271152395 a37.44740016702556,37.44740016702556 0 0,0 -0.2164100055507921,0.6053373014819249 l -15.4393421236555 -5.669540284978086" fill="red" stroke="none" /><line stroke="#e1ed5e" stroke-width="0.3" x1="174.33088141563837" x2="178.70328620479359" y1="141.23008692659167" y2="143.65538615756765" /><path d="M 175.20536237346943 141.71514677278685 a86.0,86.0 0 0,1 -30.301960400862466,31.631185727798858" fill="none" id="id65" stroke="none" /><text fill="#e1ed5e" style="font-size:6.75px; font-family:Arial;" text-anchor="middle"><textPath startOffset="22.145653131862474" xlink:href="#id65">May</textPath></text><path d="M 118.36410011445183 110.18625677009912 l 13.818997241130056 7.665164823005205 a36.80251361379564,36.80251361379564 0 0,0 -0.3111856429122193,0.5498352137934881 l -13.685378233196458 -7.901256806897816" fill="red" stroke="none" /><path d="M 117.62189284568427 111.42229804090321 l 13.341129868123017 8.647559197559044 a36.89861711701405,36.89861711701405 0 0,0 -0.3490882599415259,0.5285641185838367 l -13.190717169260765 -8.87530319448194" fill="red" stroke="none" /><path d="M 114.65682725009322 115.03919595460226 l 11.332354016948086 11.627993547288513 a37.236763270468124,37.236763270468124 0 0,0 -0.46160733412489613,0.4422093841113078 l -11.131074196957877 -11.820815061705401" fill="red" stroke="none" /><line stroke="#e1ed5e" stroke-width="0.3" x1="143.1302829299769" x2="145.66735839644613" y1="173.24464959558577" y2="177.55315839532614" /><path d="M 143.63769802327073 174.10635135553383 a86.0,86.0 0 0,1 -40.68552437913181,11.842963189579606" fill="none" id="id66" stroke="none" /><text fill="#e1ed5e" style="font-size:6.75px; font-family:Arial;" text-anchor="middle"><textPath startOffset="21.407464694133747" xlink:href="#id66">June</textPath></text><path d="M 108.4095320186766 119.2426549942271 l 6.429601982760479 14.712187602078789 a37.055785427548486,37.055785427548486 0 0,0 -0.5850666052278927,0.24973014356094073 l -6.176100302362155 -14.820392395299134" fill="red" stroke="none" /><path d="M 106.0420521117495 120.11202640906438 l 4.657098295263628 15.50196558579997 a37.18639865921614,37.18639865921614 0 0,0 -0.6129380748320813,0.17841734052840028 l -4.39030020804994 -15.579626620630888" fill="red" stroke="none" /><path d="M 103.58742460773223 120.69131181640829 l 9.725664746986302 56.09504976578553 a77.93191690955722,77.93191690955722 0 0,0 -1.3201017178537235,0.2172222353152042 l -8.761285526079508 -56.2537379995964" fill="red" stroke="none" /><path d="M 103.2317021107853 120.74984581791261 l 0.635571332125406 4.080823880355363 a25.130021121095904,25.130021121095904 0 0,0 -0.4268213156877864,0.06272803500686966 l -0.5654249108299341 -4.091132988661116" fill="red" stroke="none" /><path d="M 102.875027216393 120.80226474461374 l 5.384944716396012 38.96277746063144 a60.33313688285401,60.33313688285401 0 0,0 -1.027163548119998,0.13298688583478127 l -4.715303346385238 -39.04947594266662" fill="red" stroke="none" /><path d="M 102.51750503828377 120.84855314841334 l 4.367304833718061 36.16754904417807 a57.430275257999945,57.430275257999945 0 0,0 -0.9797717041012035,0.10978546305274933 l -3.745797228016058 -36.23719026773779" fill="red" stroke="none" /><path d="M 102.15924093988457 120.88869738790638 l 3.5584167541359166 34.42445416081031 a55.607880230748684,55.607880230748684 0 0,0 -0.9503663092404515,0.09000067757719753 l -2.9669508815104497 -34.48046659389269" fill="red" stroke="none" /><path d="M 101.80034050326958 120.92268563240118 l 3.1966132743998763 37.14949172512975 a58.28676805331287,58.28676805331287 0 0,0 -0.997622458700234,0.07722228770878732 l -2.5584218209244063 -37.19889177983359" fill="red" stroke="none" /><path d="M 101.44090949804482 120.95050786540614 l 1.4635339188065037 21.279461977903246 a42.32973121257103,42.32973121257103 0 0,0 -0.7253615642646839,0.04363595047450361 l -1.0980280024093547 -21.30144990620244" fill="red" stroke="none" /><path d="M 101.08105385017728 120.97215588758144 l 1.3737518850698118 26.650419569587893 a47.68580254511387,47.68580254511387 0 0,0 -0.8178665553250197,0.035122708948851736 l -0.9160595691439625 -26.670074846962574" fill="red" stroke="none" /><line stroke="#e1ed5e" stroke-width="0.3" x1="101.45913802915013" x2="101.54496967792366" y1="184.9874750549273" y2="189.98673829345242" /><path d="M 101.47630435890484 185.9873277026323 a86.0,86.0 0 0,1 -42.54439059252881,-10.42667462771756" fill="none" id="id67" stroke="none" /><text fill="#e1ed5e" style="font-size:6.75px; font-family:Arial;" text-anchor="middle"><textPath startOffset="22.145653131862474" xlink:href="#id67">July</textPath></text><path d="M 100.36049292484886 120.99690560180557 l 0.6407628009901333 37.32122080115519 a58.32672097915529,58.32672097915529 0 0,0 -1.001255725838981,0.008594576194533665 l -4.571204936978888e-15 -37.32672097915529" fill="red" stroke="none" /><path d="M 100.0 121.0 l 4.071474694007707e-15 33.246113874158866 a54.246113874158866,54.246113874158866 0 0,0 -0.9312066786752109,-0.00799328937272894 l 0.5707137538263547 -33.24121498298057" fill="red" stroke="none" /><path d="M 99.63950707515114 120.99690560180557 l -0.6293026286755506 36.65372321747746 a57.659125023681405,57.659125023681405 0 0,0 -0.9895038562316752,-0.02548610932470304 l 1.2584197989779697 -36.63751939080271" fill="red" stroke="none" /><path d="M 99.27912038922189 120.98762331915562 l -1.3648332405647114 39.735630635351356 a60.75906326567093,60.75906326567093 0 0,0 -1.0420880665865975,-0.04475174540821508 l 2.0467470677521478 -39.706346321517316" fill="red" stroke="none" /><path d="M 98.91894614982273 120.97215588758144 l -1.9747548669669852 38.3097168591562 a59.360579539591505,59.360579539591505 0 0,0 -1.0172018956196738,-0.06119234010534412 l 2.6321011147191054 -38.27017254122616" fill="red" stroke="none" /><path d="M 98.55909050195518 120.95050786540614 l -1.953868435567803 28.408818237978423 a49.475929406114275,49.475929406114275 0 0,0 -0.8468182400413862,-0.06554908743205659 l 2.4412556703844253 -28.371091383551313" fill="red" stroke="none" /><path d="M 97.84075906011543 120.88869738790638 l -3.914701239111369 37.87118335771782 a59.0729748601995,59.0729748601995 0 0,0 -1.0077964799070487,-0.11292569763588278 l 4.564233620619217 -37.79840189957497" fill="red" stroke="none" /><path d="M 97.48249496171623 120.84855314841334 l -4.486573721004795 37.155266525468434 a58.42516765937871,58.42516765937871 0 0,0 -0.9946806284750769,-0.12878132155603933 l 5.1237321713706665 -37.072773607711994" fill="red" stroke="none" /><path d="M 97.12497278360702 120.80226474461374 l -5.066953641000478 36.66195244614658 a58.010441450536106,58.010441450536106 0 0,0 -0.9852794322867402,-0.14480214658548216 l 5.695558178894903 -36.56956922626222" fill="red" stroke="none" /><path d="M 96.76829788921471 120.74984581791261 l -5.836346690955996 37.47353246855844 a58.92530261407464,58.92530261407464 0 0,0 -0.9981455132967845,-0.16424446437406864 l 6.478769707305845 -37.3678220056887" fill="red" stroke="none" /><path d="M 96.41257539226777 120.69131181640829 l -4.08241497497041 23.546284716066832 a44.897565481821474,44.897565481821474 0 0,0 -0.7582670011675748,-0.138181506815533 l 4.486016709689043 -23.472735035319936" fill="red" stroke="none" /><path d="M 96.05791012581884 120.62667999033965 l -1.1022559508977974 5.767468904127656 a26.87185368868887,26.87185368868887 0 0,0 -0.4523473675833049,-0.09048214224354768 l 1.2010998040120604 -5.7476973652212475" fill="red" stroke="none" /><path d="M 95.70440661134978 120.55596938700252 l -1.6860185185009602 8.068208956601325 a29.2424907771929,29.2424907771929 0 0,0 -0.49049068016169606,-0.10690016083348933 l 1.8242716152817928 -8.038077337634116" fill="red" stroke="none" /><path d="M 95.35216902796893 120.47920084513623 l -1.7742176145115698 7.8175301746575645 a29.01633495902739,29.01633495902739 0 0,0 -0.48480471206837805,-0.11441259199334533 l 1.9081544803198358 -7.785921439017992" fill="red" stroke="none" /><path d="M 94.6519064749342 120.30758222061772 l -9.59432612417505 36.43121903252578 a58.673396634401,58.673396634401 0 0,0 -0.971795172370492,-0.2648670956107541 l 10.218302697480237 -36.26115144277088" fill="red" stroke="none" /><path d="M 94.30408787586889 120.21278271476187 l -6.441908431560125 22.86006043595345 a44.75037994171987,44.75037994171987 0 0,0 -0.7376140932831099,-0.21470871245173745 l 6.833382537224842 -22.746108029199195" fill="red" stroke="none" /><path d="M 93.95794788825049 120.11202640906438 l -10.435371405288576 34.73595748759412 a57.269597722421196,57.269597722421196 0 0,0 -0.939110591780433,-0.29093886190325974 l 11.030122629940642 -34.55170203788421" fill="red" stroke="none" /><path d="M 93.61358852112213 120.00534299687104 l -6.714190488003295 21.032106074448482 a43.0778132938035,43.0778132938035 0 0,0 -0.7025319792849268,-0.23093621564914976 l 7.074245204935965 -20.913748937397312" fill="red" stroke="none" /><path d="M 93.27111125876986 119.89276391827306 l -3.874008965034116 11.452819138841722 a33.09028583980478,33.09028583980478 0 0,0 -0.5365262538016131,-0.1866316819818978 l 4.070040990880751 -11.384629024291232" fill="red" stroke="none" /><path d="M 92.93061703081489 119.77432235084164 l -12.10557690070456 33.86145310289053 a56.96029752849838,56.96029752849838 0 0,0 -0.9179039337453778,-0.3370670387655821 l 12.685069986104057 -33.64865521511623" fill="red" stroke="none" /><path d="M 92.59220618246901 119.65005319985036 l -8.177555679898575 21.69193799299116 a44.182161046580944,44.182161046580944 0 0,0 -0.7073937165161182,-0.2736350860962583 l 8.548721658908221 -21.548363018756863" fill="red" stroke="none" /><path d="M 92.25597844496254 119.51999308798841 l -11.026703685253741 27.794496462814674 a50.90187665989889,50.90187665989889 0 0,0 -0.8094502203622693,-0.3291963578306385 l 11.502208366806451 -27.601112848404746" fill="red" stroke="none" /><path d="M 91.92203290615298 119.3841803445677 l -9.908445366534874 23.776661836801182 a46.75862841230496,46.75862841230496 0 0,0 -0.7382629102218874,-0.3151205365474862 l 10.315143351927194 -23.603066650594293" fill="red" stroke="none" /><path d="M 91.59046798132341 119.24265499422711 l -14.020774070404709 32.082274922030805 a56.0122045822039,56.0122045822039 0 0,0 -0.8777555145005469,-0.39260887703667857 l 14.56944298776089 -31.836862294084273" fill="red" stroke="none" /><path d="M 91.26138138417905 119.09545874513695 l -12.394759600309985 27.084786624639094 a50.78616679016797,50.78616679016797 0 0,0 -0.7896312683902272,-0.3695873044267259 l 12.857879582571702 -26.86802308864184" fill="red" stroke="none" /><path d="M 90.6110303473126 118.78422872680471 l -16.168344146085808 32.34751903653658 a57.163204230894195,57.163204230894195 0 0,0 -0.8739785141984335,-0.44625965669318035 l 16.721249881997824 -32.06520142817056" fill="red" stroke="none" /><path d="M 90.28995756902619 118.62028667847754 l -18.234068489290628 34.96623058026481 a60.43499124717017,60.43499124717017 0 0,0 -0.9157661967947994,-0.48759391905706795 l 18.83162350187199 -34.64806619348517" fill="red" stroke="none" /><path d="M 89.97174638481275 118.45085714620012 l -11.03399976939334 20.301316790389137 a44.10611638364847,44.10611638364847 0 0,0 -0.6621290251337392,-0.3672718087416599 l 11.380872982683181 -20.10891206621433" fill="red" stroke="none" /><line stroke="#e1ed5e" stroke-width="0.3" x1="58.13341422392154" x2="55.67067388415222" y1="173.97424548756322" y2="178.32567169271397" /><path d="M 57.64086615596768 174.84453072859336 a86.0,86.0 0 0,1 -31.369924170532247,-30.572349798747897" fill="none" id="id68" stroke="none" /><text fill="#e1ed5e" style="font-size:6.75px; font-family:Arial;" text-anchor="middle"><textPath startOffset="22.145653131862474" xlink:href="#id68">August</textPath></text><path d="M 89.65649057296885 118.27599006163327 l -16.45665980962136 29.07734103691399 a54.411276747029724,54.411276747029724 0 0,0 -0.808933830178808,-0.4670381646103334 l 16.953386107660567 -28.790555975027484" fill="red" stroke="none" /><path d="M 89.34428304082925 118.09573695890944 l -19.174138086125794 32.56187833721716 a58.7878749361955,58.7878749361955 0 0,0 -0.8652098311607931,-0.5195336441144407 l 19.730280673844014 -32.2279306925668" fill="red" stroke="none" /><path d="M 89.03521579738668 117.91015095944536 l -13.393353052467065 21.877035661646822 a46.651249391189424,46.651249391189424 0 0,0 -0.6794107381239433,-0.42400254959026684 l 13.76692791938072 -21.64389731521501" fill="red" stroke="none" /><path d="M 88.4268655584334 117.5232005979908 l -20.014289772944778 30.304185636864727 a57.316875722299685,57.316875722299685 0 0,0 -0.8163662039629741,-0.5492876152923948 l 20.531552265004755 -29.95614834751521" fill="red" stroke="none" /><path d="M 88.1277618465304 117.32195027204791 l -22.21610515765966 32.41396136137183 a60.29656752838215,60.29656752838215 0 0,0 -0.8487600641315382,-0.592500442792275 l 22.769260312964963 -32.02781610277443" fill="red" stroke="none" /><path d="M 87.83215693770417 117.11559508785305 l -22.13692136812884 31.13835218688683 a59.205238705880625,59.205238705880625 0 0,0 -0.8232882851171495,-0.5959972282426999 l 22.668190663619942 -30.753754187271067" fill="red" stroke="none" /><path d="M 87.54013794807813 116.9041958592261 l -22.14238115973545 30.040392610612603 a58.31903310139152,58.31903310139152 0 0,0 -0.800767565923825,-0.6009109100714862 l 22.65480171457004 -29.655862673277102" fill="red" stroke="none" /><path d="M 87.2517909369889 116.68781488649013 l -23.40250063191985 30.634624557545695 a59.55071020887671,59.55071020887671 0 0,0 -0.8070257102550331,-0.6275480735456815 l 23.924936286810112 -30.22837543237922" fill="red" stroke="none" /><path d="M 86.96720088162412 116.46651593811092 l -27.435708757982717 34.66412176181769 a65.20768544688777,65.20768544688777 0 0,0 -0.8717622598157211,-0.70222996769506 l 28.0267217881537 -34.18804350032922" fill="red" stroke="none" /><path d="M 86.68645165197938 116.24036423190432 l -2.119688578798716 2.5856754095925774 a24.34347080065932,24.34347080065932 0 0,0 -0.3208998815810971,-0.26770609441473425 l 2.163762794541706 -2.548907131265973" fill="red" stroke="none" /><path d="M 86.40962598614128 116.0094264158162 l -23.976911190166415 28.244741092930422 a58.04939499678503,58.04939499678503 0 0,0 -0.754146006784475,-0.6514133589459706 l 24.458236676713753 -27.828983601519727" fill="red" stroke="none" /><path d="M 86.13680546590413 115.77377054828092 l -18.886727182240584 21.48962854470056 a49.60965918436629,49.60965918436629 0 0,0 -0.6348500204863041,-0.56768680299834 l 19.25284222955026 -21.16224621181884" fill="red" stroke="none" /><path d="M 85.86807049272751 115.53346607816431 l -26.47154818118056 29.096868583816068 a60.336632093920116,60.336632093920116 0 0,0 -0.7601560262492127,-0.7035890694257476 l 26.96713397874374 -28.63816176825794" fill="red" stroke="none" /><path d="M 85.60350026404147 115.28858382429668 l -25.461502741806928 27.039233570670245 a58.1403860233076,58.1403860233076 0 0,0 -0.7207401030608898,-0.690452714931608 l 25.921915330733132 -26.59816872543305" fill="red" stroke="none" /><path d="M 85.34317274990678 115.03919595460226 l -24.42620287809983 25.06343598395601 a55.99736004849442,55.99736004849442 0 0,0 -0.6826560297050575,-0.6768213978443299 l 24.85285082793485 -24.64043457588302" fill="red" stroke="none" /><path d="M 84.83555147118756 114.52719865689866 l -5.051252866913309 4.838985982540384 a27.995065465363584,27.995065465363584 0 0,0 -0.3294674816160143,-0.3498830481332261 l 5.1335761822655765 -4.751561474462668" fill="red" stroke="none" /><path d="M 84.58840730492382 114.26474011684316 l -26.982932169508885 24.97499918431035 a57.767230147518866,57.767230147518866 0 0,0 -0.6673553737992547,-0.7335404592597715 l 27.40768524415002 -24.5081211494929" fill="red" stroke="none" /><path d="M 84.3458050057657 113.99807769240083 l -26.624875399317332 23.808127759198467 a56.71709587057002,56.71709587057002 0 0,0 -0.642763871504546,-0.7313472952357033 l 27.02965033478047 -23.347568186151463" fill="red" stroke="none" /><path d="M 84.1078160697243 113.72728997021213 l -29.853772062547954 25.786977271669652 a60.44890243304845,60.44890243304845 0 0,0 -0.6715741698884933,-0.7911126834794128 l 30.29204079594356 -25.270697805740685" fill="red" stroke="none" /><path d="M 83.8745106332314 113.45245675266167 l -26.648206121690578 22.230881323007786 a55.70358733476647,55.70358733476647 0 0,0 -0.6062491459609356,-0.739525383340071 l 27.02590208689014 -21.77015365796922" fill="red" stroke="none" /><path d="M 83.64595745247003 113.17365903436017 l -28.55285633344332 23.00015991157274 a57.66432817816484,57.66432817816484 0 0,0 -0.6143545699027235,-0.7762169296917096 l 28.943477333987605 -22.50662303796635" fill="red" stroke="none" /><path d="M 83.4222238831116 112.89097897827486 l -7.074073318668404 5.500842199746501 a29.961125946241808,29.961125946241808 0 0,0 -0.3122349128368545,-0.40872552377879134 l 7.167460208859553 -5.378595762726839" fill="red" stroke="none" /><path d="M 83.20337586046588 112.60449989151573 l -3.13199893278817 2.3503103885999583 a24.915785519885777,24.915785519885777 0 0,0 -0.2537826763421909,-0.34430494083241237 l 3.1718836287141916 -2.2961991384986664" fill="red" stroke="none" /><path d="M 82.98947788004972 112.3143062007846 l -19.85348767584138 14.372394019997829 a45.509726288982804,45.509726288982804 0 0,0 -0.4526806996096492,-0.6367520947581105 l 20.097283473980987 -14.029464698530214" fill="red" stroke="none" /><path d="M 82.78059297857968 112.02048342749411 l -30.533884234060665 21.3150225763277 a58.23772648602997,58.23772648602997 0 0,0 -0.5652117315426136,-0.8246608078779146 l 30.895285702418605 -20.787727033379735" fill="red" stroke="none" /><path d="M 82.576782715395 111.72311816256416 l -30.961704863248844 20.83241680897929 a58.31778072369752,58.31778072369752 0 0,0 -0.5517294193418397,-0.8353886615380308 l 31.314758721511414 -20.297848269102197" fill="red" stroke="none" /><path d="M 82.37810715431573 111.42229804090323 l -27.147109789661876 17.59642858358323 a53.351195786695435,53.351195786695435 0 0,0 -0.49154821501566326,-0.7727954379930287 l 27.44517569630343 -17.12781947091153" fill="red" stroke="none" /><path d="M 82.18462484594161 111.11811171558189 l -18.545752785813292 11.573921376293045 a42.86093782107974,42.86093782107974 0 0,0 -0.3841810272101034,-0.6275308356226296 l 18.7417017774788 -11.253853424545857" fill="red" stroke="none" /><line stroke="#e1ed5e" stroke-width="0.3" x1="26.387840678322732" x2="22.057713659400548" y1="142.50000000000003" y2="145.00000000000006" /><path d="M 25.521815274538298 143.00000000000003 a86.0,86.0 0 0,1 -11.493303480769221,-40.785679425670985" fill="none" id="id69" stroke="none" /><text fill="#e1ed5e" style="font-size:6.75px; font-family:Arial;" text-anchor="middle"><textPath startOffset="21.40746469413373" xlink:href="#id69">September</textPath></text><path d="M 81.63589988554817 110.18625677009913 l -33.04777973157853 18.33104633113057 a58.79130858783522,58.79130858783522 0 0,0 -0.48196177026647813,-0.8867553728048004 l 33.35758685146033 -17.76103612485118" fill="red" stroke="none" /><path d="M 81.4637452351635 109.86951160357371 l -23.628280808590187 12.580728662365038 a47.76883239227375,47.76883239227375 0 0,0 -0.37917518639429076,-0.7271184160334105 l 23.840764063959426 -12.173264003227125" fill="red" stroke="none" /><path d="M 81.29705330413844 109.54985784667822 l -10.819974377681843 5.524756012614108 a33.14885898068651,33.14885898068651 0 0,0 -0.25442552225899734,-0.5090214774186426 l 10.913219813152578 -5.3382026790317125" fill="red" stroke="none" /><path d="M 81.1358732173502 109.22738970284198 l -32.401727401501844 15.84930854334054 a57.070382863275,57.070382863275 0 0,0 -0.42292072998546565,-0.883741667118806 l 32.66902738944722 -15.290754374156629" fill="red" stroke="none" /><path d="M 80.9802524753101 108.90220220490708 l -32.41676403208869 15.172682385389207 a56.79185495444486,56.79185495444486 0 0,0 -0.40569811966024194,-0.8865236083110635 l 32.67244661660399 -14.613969794863454" fill="red" stroke="none" /><path d="M 80.68587082218212 108.24405325689762 l -17.683123413869748 7.547873881865887 a40.226628768629766,40.226628768629766 0 0,0 -0.26563779864924036,-0.6374340147130517 l 17.810087057055476 -7.243207357711554" fill="red" stroke="none" /><path d="M 80.5471966667186 107.91128576633889 l -23.81020526823753 9.683403199267321 a46.70397191943663,46.70397191943663 0 0,0 -0.29566132911022963,-0.7452596896328297 l 23.972925272313887 -9.273242492420927" fill="red" stroke="none" /><path d="M 80.41425534168474 107.57618678355246 l -35.68393284453308 13.803311802451534 a59.26061264497531,59.26061264497531 0 0,0 -0.35886340889519525,-0.9519278276322917 l 35.91562693724271 -13.188715694625097" fill="red" stroke="none" /><path d="M 80.28708602549918 107.23885506374661 l -40.55678965669358 14.893014932009642 a64.20480391139797,64.20480391139797 0 0,0 -0.3710420992880584,-1.0378707885874807 l 40.80647192602559 -14.19460918704124" fill="red" stroke="none" /><path d="M 80.16572619554312 106.89939002012753 l -43.75505613477849 15.220279834927736 a67.32668621443935,67.32668621443935 0 0,0 -0.3703435130947843,-1.0948547907349802 l 44.009885069445644 -14.466923369718593" fill="red" stroke="none" /><path d="M 80.05021161711548 106.5578916946017 l -34.43109154491373 11.31818367919012 a57.24363870764241,57.24363870764241 0 0,0 -0.2988534571265006,-0.9361541979231661 l 34.620309717817484 -10.725460447575562" fill="red" stroke="none" /><path d="M 79.94057633289273 106.21446072829308 l -33.79610618696063 10.470120086873711 a56.38078868586559,56.38078868586559 0 0,0 -0.2784772801712238,-0.9269602958631894 l 33.97085978713548 -9.888422187419797" fill="red" stroke="none" /><path d="M 79.83685265289637 105.86919833188381 l -8.460395708427308 2.462697887594981 a29.811536553220442,29.811536553220442 0 0,0 -0.13881033322608669,-0.49258890286874735 l 8.50142453372797 -2.317101060823238" fill="red" stroke="none" /><path d="M 79.73907114497094 105.5222062557868 l -31.371397171972166 8.550413801627686 a53.515752131862,53.515752131862 0 0,0 -0.2339670946834042,-0.888411167443802 l 31.513553747460303 -8.01062212981108" fill="red" stroke="none" /><path d="M 79.56144815229197 104.8234425847677 l -38.02116314187607 8.972890975222928 a60.065606601131805,60.065606601131805 0 0,0 -0.22821823812954534,-1.005571666289682 l 38.16959224156329 -8.31888497499422" fill="red" stroke="none" /><path d="M 79.48165901384964 104.47187691870673 l -38.67209969086029 8.428404134730684 a60.579910191386006,60.579910191386006 0 0,0 -0.21272863121747976,-1.0179835090070242 l 38.81108603290214 -7.763304174438251" fill="red" stroke="none" /><path d="M 79.407916724674 104.11899336999214 l -40.86824127977489 8.174792837805619 a62.67781644043909,62.67781644043909 0 0,0 -0.2019828681039474,-1.0568597157558204 l 41.002550440160995 -7.472030557016484" fill="red" stroke="none" /><path d="M 79.34024301695615 103.76489593502545 l -36.44938522275961 6.642292180492358 a58.049665700626186,58.049665700626186 0 0,0 -0.17023805984227852,-0.9818878901663298 l 36.55803810009412 -6.0156112574054355" fill="red" stroke="none" /><path d="M 79.22317932658666 103.0534771498775 l -27.485823163214008 4.039469478688988 a48.78106888924059,48.78106888924059 0 0,0 -0.11464824942771194,-0.8295376208973751 l 27.551115929196932 -3.567043549591528" fill="red" stroke="none" /><path d="M 79.17382384314188 102.69636545807758 l -39.90682626785874 5.166737622870018 a61.239905074896,61.239905074896 0 0,0 -0.12603147309492305,-1.043721392900766 l 39.989639827213324 -4.480922553045853" fill="red" stroke="none" /><path d="M 79.13060592940153 102.33845913500099 l -37.2987209924606 4.1793994848922384 a58.53214579167755,58.53214579167755 0 0,0 -0.10331650511484784,-0.999493465808177 l 37.36496989005712 -3.5385014968011306" fill="red" stroke="none" /><path d="M 79.0935383218832 101.97986365728391 l -41.354759558168475 3.916338726539953 a62.539786315470174,62.539786315470174 0 0,0 -0.09204182058421848,-1.0696654736257374 l 41.41589500145043 -3.205852205538554" fill="red" stroke="none" /><path d="M 79.06263194458094 101.62068470465958 l -37.910808270338684 2.9345363248327287 a59.02421448435382,59.02421448435382 0 0,0 -0.06952501246125929,-1.0108784225439194 l 37.95559724396501 -2.283314478134466" fill="red" stroke="none" /><path d="M 79.01933749520258 100.90099992219065 l -20.89875004768785 0.8974822488347534 a41.91801204566788,41.91801204566788 0 0,0 -0.02470231045404906,-0.719180816284757 l 20.91107704513875 -0.5385951679858764" fill="red" stroke="none" /><path d="M 79.00696218219943 100.54070618675478 l -36.68083587983921 0.9447682163820975 a57.693000801602274,57.693000801602274 0 0,0 -0.017001765797091967,-0.9902676221874988 l 36.69164907723496 -0.3149536782255465" fill="red" stroke="none" /><line stroke="#e1ed5e" stroke-width="0.3" x1="15.003131293944662" x2="10.003315487706104" y1="100.72959589197737" y2="100.7725132973878" /><path d="M 14.003168132696942 100.73817937305945 a86.0,86.0 0 0,1 10.791469493833604,-42.45332614584628" fill="none" id="id70" stroke="none" /><text fill="#e1ed5e" style="font-size:6.75px; font-family:Arial;" text-anchor="middle"><textPath startOffset="22.145653131862435" xlink:href="#id70">October</textPath></text><path d="M 79.00077361379809 99.81974689727619 l -3.2718419476851173 -0.02808482807155625 a24.27196248270052,24.27196248270052 0 0,0 0.007152795240895433,-0.4166144634463266 l 3.2708777208455557 0.08424620748693522" fill="red" stroke="none" /><path d="M 79.03789590574601 98.7389718711861 l -3.839109588696202 -0.23095129950586218 a24.846050043455307,24.846050043455307 0 0,0 0.029266326608079995,-0.4255259658056867 l 3.834579300923058 0.29682068946587387" fill="red" stroke="none" /><path d="M 79.13060592940154 97.66154086499901 l -38.09588450680556 -4.268723319398586 a59.334298156265305,59.334298156265305 0 0,0 0.12210974188383786,-1.0112438326398785 l 38.01699267866206 4.922060828961901" fill="red" stroke="none" /><path d="M 79.17382384314186 97.30363454192245 l -36.60634737827231 -4.739424552723653 a57.91187902924618,57.91187902924618 0 0,0 0.13610803746117925,-0.9848099569260556 l 36.519594824255925 5.367122817849776" fill="red" stroke="none" /><path d="M 79.22317932658666 96.9465228501225 l -24.93351203484029 -3.664367636478833 a46.20134148347661,46.20134148347661 0 0,0 0.12205626127207828,-0.7836887546207202 l 24.866934281429945 4.091844573031003" fill="red" stroke="none" /><path d="M 79.2786578344484 96.59031103205396 l -39.697244016578225 -6.532166396354929 a61.23108723787395,61.23108723787395 0 0,0 0.17956798489016138,-1.0357004185114196 l 39.57926121419583 7.212659847786941" fill="red" stroke="none" /><path d="M 79.34024301695615 96.23510406497455 l -39.52494575626145 -7.202761762008197 a61.17587726529015,61.17587726529015 0 0,0 0.19714278273494024,-1.03153434387981 l 39.395476681244354 7.880198670921321" fill="red" stroke="none" /><path d="M 79.407916724674 95.88100663000787 l -9.806011435888722 -1.9614769205450013 a31.00026259608272,31.00026259608272 0 0,0 0.10885858708956654,-0.5209277464757079 l 9.77089513797479 2.1295211183061187" fill="red" stroke="none" /><path d="M 79.48165901384962 95.52812308129327 l -37.42705235689254 -8.157051863159305 a59.30563591984665,59.30563591984665 0 0,0 0.2253307426104549,-0.9928488282538842 l 37.28151075272442 8.798335025352197" fill="red" stroke="none" /><path d="M 79.56144815229197 95.17655741523228 l -3.3905596602064607 -0.8001628477934136 a24.48369852203204,24.48369852203204 0 0,0 0.10004793953356302,-0.408229734740017 l 3.3763241941565996 0.8582484071415484" fill="red" stroke="none" /><path d="M 79.64726062577567 94.8264132398404 l -39.91243823278864 -10.145585722399229 a62.181739100440126,62.181739100440126 0 0,0 0.2718541786322144,-1.0322745963056446 l 39.7323945733517 10.82924082307766" fill="red" stroke="none" /><path d="M 79.73907114497095 94.47779374421319 l -34.98465728719153 -9.535223913484776 a57.260815498035,57.260815498035 0 0,0 0.2666213754493812,-0.946145202317604 l 34.81581741966757 10.134377039705392" fill="red" stroke="none" /><path d="M 79.83685265289637 94.1308016681162 l -32.36972073760334 -9.422353945351517 a54.713195851208006,54.713195851208006 0 0,0 0.2702406675261636,-0.8995432911808648 l 32.20320375007354 9.976634840123104" fill="red" stroke="none" /><path d="M 80.16572619554312 93.10060997987247 l -37.41489226362533 -13.014841724621013 a60.61388983949477,60.61388983949477 0 0,0 0.3502900649474401,-0.9798236551564815 l 37.18596202863395 13.655200336158416" fill="red" stroke="none" /><path d="M 80.28708602549916 92.7611449362534 l -35.91745095856971 -13.189385500521684 a59.26255575941879,59.26255575941879 0 0,0 0.3588751757778165,-0.9519590406864343 l 35.685745098977456 13.804012821402264" fill="red" stroke="none" /><path d="M 80.41425534168474 92.42381321644754 l -34.41723618434366 -13.313326322546738 a57.902449841975404,57.902449841975404 0 0,0 0.3665537335571107,-0.9239548591851191 l 34.18362377582042 13.90218219894544" fill="red" stroke="none" /><path d="M 80.5471966667186 92.08871423366112 l -35.15538010507436 -14.297387038282062 a58.95149570774114,58.95149570774114 0 0,0 0.38928804193249583,-0.9341495853023393 l 34.90476621860538 14.898769133025665" fill="red" stroke="none" /><path d="M 80.68587082218212 91.75594674310238 l -34.927304837090546 -14.90838952902788 a58.97600165278431,58.97600165278431 0 0,0 0.40543506727489526,-0.927714777089325 l 34.66623588779867 15.505766375893073" fill="red" stroke="none" /><path d="M 80.9802524753101 91.09779779509293 l -7.313130924243084 -3.422914534173466 a29.074541957496812,29.074541957496812 0 0,0 0.21545722828102526,-0.4502227406077157 l 7.253294438002153 3.5479497768462687" fill="red" stroke="none" /><path d="M 81.1358732173502 90.77261029715801 l -35.69648479522927 -17.460939487011117 a60.73818609983473,60.73818609983473 0 0,0 0.4661802908063146,-0.9326728634091997 l 35.39148459121121 18.071144206584087" fill="red" stroke="none" /><path d="M 81.29705330413844 90.45014215332179 l -32.31882850172151 -16.502224113749214 a57.28815338955804,57.28815338955804 0 0,0 0.4547368053983462,-0.8720177836466033 l 32.03078362734822 17.054588140500304" fill="red" stroke="none" /><path d="M 81.46374523516351 90.13048839642627 l -32.33814052708712 -17.218238377665042 a57.63636261393497,57.63636261393497 0 0,0 0.472493707392612,-0.8693352035270495 l 32.03780147007916 17.77082841466671" fill="red" stroke="none" /><path d="M 81.63589988554816 89.8137432299009 l -18.860226372011642 -10.461449641973912 a42.56733797702163,42.56733797702163 0 0,0 0.359930426884658,-0.6359625764377993 l 18.677862580105614 10.783668988510817" fill="red" stroke="none" /><line stroke="#e1ed5e" stroke-width="0.3" x1="26.387840678322718" x2="22.05771365940052" y1="57.49999999999999" y2="54.99999999999999" /><path d="M 25.521815274538284 56.99999999999999 a86.0,86.0 0 0,1 29.574782752854787,-30.34633250058573" fill="none" id="id71" stroke="none" /><text fill="#e1ed5e" style="font-size:6.75px; font-family:Arial;" text-anchor="middle"><textPath startOffset="21.40746469413373" xlink:href="#id71">November</textPath></text><path d="M 81.81346652052679 89.5 l -33.411104687899524 -19.28991028548156 a59.579820570963115,59.579820570963115 0 0,0 0.5189864537228445,-0.8813524596975357 l 33.075044524046895 19.86061391347267" fill="red" stroke="none" /><path d="M 81.99639281039701 89.18935116829357 l -25.22550240681085 -15.147189407736185 a50.42385628414221,50.42385628414221 0 0,0 0.45197071944632433,-0.7382602032973308 l 24.961763722909133 15.57798672715806" fill="red" stroke="none" /><path d="M 82.37810715431573 88.57770195909679 l -29.715598623534273 -19.26129201409758 a56.41206251557979,56.41206251557979 0 0,0 0.5336999129486536,-0.8080896909086289 l 29.38057427166489 19.76856158334527" fill="red" stroke="none" /><path d="M 82.576782715395 88.27688183743585 l -31.532250994840364 -21.216305708978883 a59.00545330263094,59.00545330263094 0 0,0 0.5726627127114738,-0.8355320120785498 l 31.163398545313576 21.75447245612747" fill="red" stroke="none" /><path d="M 82.78059297857968 87.97951657250589 l -34.40049476648058 -24.014217024063942 a62.95326756591791,62.95326756591791 0 0,0 0.6261898615582406,-0.8808144601864575 l 33.98318980639236 24.60120871095992" fill="red" stroke="none" /><path d="M 82.98947788004972 87.6856937992154 l -29.145246294071853 -21.098910699604804 a56.98068112545963,56.98068112545963 0 0,0 0.5803834578797253,-0.7874016264843404 l 28.778760816608308 21.59611863535801" fill="red" stroke="none" /><path d="M 83.2033758604659 87.39550010848427 l -27.729678737378656 -20.808867885207686 a55.66906496492597,55.66906496492597 0 0,0 0.580145942386128,-0.7594296615183751 l 27.36838081763822 21.281818459966946" fill="red" stroke="none" /><path d="M 83.8745106332314 86.54754324733833 l -31.327140671182132 -26.134214936267465 a61.79689857044355,61.79689857044355 0 0,0 0.6865501140420907,-0.8087543080358759 l 30.873895993632928 26.6681360267529" fill="red" stroke="none" /><path d="M 84.10781606972428 86.27271002978789 l -31.342100873042796 -27.072560250215552 a62.415586506018975,62.415586506018975 0 0,0 0.7073437630937088,-0.8048273570969823 l 30.872746045990493 27.606599885123835" fill="red" stroke="none" /><path d="M 84.34580500576568 86.00192230759919 l -26.483288873499387 -23.681520214746193 a56.52715847402729,56.52715847402729 0 0,0 0.6530294576512012,-0.7177937678819337 l 26.07286171500632 24.132651558185785" fill="red" stroke="none" /><path d="M 84.58840730492382 85.73525988315684 l -26.60625893475884 -24.62635606163061 a57.25397119458288,57.25397119458288 0 0,0 0.6738088083891765,-0.7155616043861541 l 26.179594292633393 25.079459125961275" fill="red" stroke="none" /><path d="M 84.83555147118756 85.47280134310135 l -27.212696901084133 -26.069148055130622 a58.68463019522143,58.68463019522143 0 0,0 0.7031346441286606,-0.7214780876572883 l 26.761175455804672 26.53244883485564" fill="red" stroke="none" /><path d="M 85.08716467003674 85.21462403516908 l -14.565800367126016 -14.441307094964152 a41.5113112926997,41.5113112926997 0 0,0 0.506058623663375,-0.5017333622717806 l 14.315749823332665 14.689220467464605" fill="red" stroke="none" /><path d="M 85.60350026404147 84.71141617570332 l -24.256802936244014 -25.759884124744907 a56.38310499105556,56.38310499105556 0 0,0 0.7103471895958549,-0.65748675382215 l 23.811025975334204 26.172488624699422" fill="red" stroke="none" /><path d="M 85.86807049272753 84.46653392183569 l -24.564720119452232 -27.000930516865928 a57.503091969361215,57.503091969361215 0 0,0 0.735861517998015,-0.6580119069411148 l 24.097593574630828 27.418637953690446" fill="red" stroke="none" /><path d="M 86.13680546590413 84.22622945171909 l -24.72674846931423 -28.134500731469107 a58.45613729782837,58.45613729782837 0 0,0 0.7594301804118041,-0.6559777022705585 l 24.240138809139577 28.554822566204376" fill="red" stroke="none" /><path d="M 86.40962598614128 83.9905735841838 l -23.58742293017478 -27.78592490201458 a57.44755332182572,57.44755332182572 0 0,0 0.75728367614684,-0.6317529763689594 l 23.106964919866034 28.186740062295424" fill="red" stroke="none" /><path d="M 86.68645165197937 83.75963576809568 l -23.168536510160333 -28.261847391053927 a57.544672689433874,57.544672689433874 0 0,0 0.7693153584627667,-0.6197059958007557 l 22.679970381342322 28.655401680648083" fill="red" stroke="none" /><path d="M 87.54013794807813 83.09580414077388 l -20.822616517074195 -28.24987840470402 a56.094686043583486,56.094686043583486 0 0,0 0.7800339781827017,-0.5646844456991827 l 20.334601528517524 28.603163621776282" fill="red" stroke="none" /><path d="M 87.83215693770416 82.88440491214696 l -19.531040467536968 -27.47285435679849 a54.70785173004101,54.70785173004101 0 0,0 0.7700909296541872,-0.537583277174211 l 19.056554446709015 27.804082449777827" fill="red" stroke="none" /><path d="M 88.12776184653039 82.6780497279521 l -2.1073415838899914 -3.074674349561729 a24.727534159071492,24.727534159071492 0 0,0 0.3521951072946083,-0.2369725861560522 l 2.054250188498394 3.1103966097748903" fill="red" stroke="none" /><path d="M 88.4268655584334 82.4767994020092 l -18.29456969699033 -27.700310255005565 a54.19636227994874,54.19636227994874 0 0,0 0.7807227747184694,-0.506055070147546 l 17.816361290014836 28.010279166857018" fill="red" stroke="none" /><path d="M 88.72937992617638 82.28071324371311 l -18.19368863722178 -28.60350042907286 a54.89941803370884,54.89941803370884 0 0,0 0.7995338734894227,-0.4989682703270117 l 17.699990634942658 28.91160449624141" fill="red" stroke="none" /><path d="M 89.03521579738668 82.08984904055464 l -19.041363610659634 -31.102636443982394 a57.468445564897536,57.468445564897536 0 0,0 0.8457911455081917,-0.5078732813242091 l 18.50463970859401 31.42492372584253" fill="red" stroke="none" /><line stroke="#e1ed5e" stroke-width="0.3" x1="56.869717070023135" x2="54.33264160355391" y1="26.7553504044142" y2="22.446841604673864" /><path d="M 56.362301976729285 25.89364864446614 a86.0,86.0 0 0,1 42.16139366436587,-11.88097634709845" fill="none" id="id72" stroke="none" /><text fill="#e1ed5e" style="font-size:6.75px; font-family:Arial;" text-anchor="middle"><textPath startOffset="22.145653131862474" xlink:href="#id72">December</textPath></text><path d="M 89.65649057296885 81.72400993836675 l -17.055553557574907 -30.135528904657313 a55.62718598902808,55.62718598902808 0 0,0 0.835085413312501,-0.4632078017409279 l 16.535723956106303 30.423869621831386" fill="red" stroke="none" /><path d="M 89.97174638481275 81.54914285379989 l -17.562230594757416 -32.31252621909716 a57.77677655971598,57.77677655971598 0 0,0 0.8754864994810684,-0.46614724900047344 l 17.004955279489785 32.6092439358202" fill="red" stroke="none" /><path d="M 90.28995756902619 81.37971332152246 l -16.29243978869158 -31.242901533525668 a56.23581261304642,56.23581261304642 0 0,0 0.859799456898342,-0.43901972900597674 l 15.753713110079659 31.517979214204477" fill="red" stroke="none" /><path d="M 90.61103034731259 81.2157712731953 l -16.070233611194205 -32.151232245111515 a56.94376362037585,56.94376362037585 0 0,0 0.8781263912810993,-0.42953562145021057 l 15.515946970651052 32.42236161665894" fill="red" stroke="none" /><path d="M 90.93487009805054 81.0573650232925 l -14.64594520564218 -30.60439253713033 a54.9283443971767,54.9283443971767 0 0,0 0.8540344940014339,-0.39973126592226665 l 14.118421997769223 30.85130003462314" fill="red" stroke="none" /><path d="M 91.92203290615298 80.6158196554323 l -24.233901281541083 -58.15254103370309 a84.0,84.0 0 0,0 1.3357821552382365,-0.5432509736828348 l 23.232064665112404 58.55997926396521" fill="red" stroke="none" /><path d="M 92.25597844496254 80.48000691201159 l -13.70706595184634 -34.550760316852866 a58.17040079795858,58.17040079795858 0 0,0 0.9313572500067717,-0.36026899213511937 l 13.111936439346039 34.780969197126026" fill="red" stroke="none" /><path d="M 92.592206182469 80.34994680014964 l -13.938754336120466 -36.97420190019564 a60.51430726457377,60.51430726457377 0 0,0 0.9751760980222492,-0.35809817079018647 l 13.30198908644409 37.20803091999454" fill="red" stroke="none" /><path d="M 92.93061703081487 80.22567764915836 l -12.582512532276194 -35.19552694786518 a58.37706166571674,58.37706166571674 0 0,0 0.9465263115309236,-0.32925098503465783 l 11.976480448700267 35.40633636546843" fill="red" stroke="none" /><path d="M 93.27111125876988 80.10723608172694 l -9.831371656754404 -29.064703382933786 a51.68245184777704,51.68245184777704 0 0,0 0.8428602200227664,-0.27706489565270315 l 9.330988699083877 29.229189199988518" fill="red" stroke="none" /><path d="M 93.61358852112211 79.99465700312896 l -2.2405165573181622 -7.018386204453254 a28.367337331660373,28.367337331660373 0 0,0 0.4651694443165687,-0.1441106829229312 l 2.1197064801299774 7.055813475182827" fill="red" stroke="none" /><path d="M 94.30408787586887 79.78721728523814 l -10.852838371866028 -38.51289469856781 a61.01283742486679,61.01283742486679 0 0,0 1.0105428399103542,-0.27542794470196713 l 10.190114131020996 38.69352313741392" fill="red" stroke="none" /><path d="M 94.6519064749342 79.69241777938228 l -9.026286282764904 -34.27427923146252 a56.44291270331338,56.44291270331338 0 0,0 0.9390883301657029,-0.23871258125177458 l 8.436592659373822 34.42417704454956" fill="red" stroke="none" /><path d="M 95.00130118170881 79.60360301121753 l -7.9636388237877185 -32.49436399946612 a54.45598952423226,54.45598952423226 0 0,0 0.9098502743014103,-0.2147221873412769 l 7.404656395746403 32.62628233045363" fill="red" stroke="none" /><path d="M 95.35216902796891 79.52079915486377 l -7.771154028852622 -34.24113852527118 a56.111912543280276,56.111912543280276 0 0,0 0.9411773558630678,-0.2051252241560088 l 7.182214256370436 34.3694952075609" fill="red" stroke="none" /><path d="M 95.70440661134978 79.44403061299748 l -7.7647600231956195 -37.15718758576088 a58.95982201619548,58.95982201619548 0 0,0 0.9925002045330092,-0.19852783749596242 l 7.1257633331316335 37.285004819919706" fill="red" stroke="none" /><path d="M 96.41257539226777 79.30868818359171 l -0.6052472860461175 -3.4909055077067292 a24.542985399490572,24.542985399490572 0 0,0 0.41573771661136966,-0.06840948306164621 l 0.5452320663816751 3.500780989264044" fill="red" stroke="none" /><path d="M 96.76829788921471 79.25015418208739 l -5.469663202366464 -35.119161430827326 a56.542547955258236,56.542547955258236 0 0,0 0.9603479676482926,-0.14113807984576074 l 4.865990129110487 35.20788058397197" fill="red" stroke="none" /><path d="M 97.12497278360702 79.19773525538626 l -4.921160833558902 -35.60706831810503 a56.94553015549991,56.94553015549991 0 0,0 0.9694899987989428,-0.1255198902104943 l 4.309193012869166 35.68629980451592" fill="red" stroke="none" /><path d="M 97.48249496171623 79.15144685158666 l -4.344115766184916 -35.97551029963719 a57.23684151673981,57.23684151673981 0 0,0 0.9764716867244156,-0.10941568922250268 l 3.7259081778597007 36.04478174936666" fill="red" stroke="none" /><path d="M 97.84075906011542 79.11130261209362 l -3.6308273239084614 -35.12496073778593 a56.31211936272083,56.31211936272083 0 0,0 0.9624021059997917,-0.09114048004387784 l 3.027325654523654 35.182112973334995" fill="red" stroke="none" /><path d="M 98.1996594967304 79.07731436759882 l -3.5331618354553784 -41.060696150188654 a62.21242532166283,62.21242532166283 0 0,0 1.0648130748017621,-0.08242326633819655 l 2.8277797658783994 41.1152971835219" fill="red" stroke="none" /><path d="M 98.5590905019552 79.04949213459386 l -1.4707858456607712 -21.384903402785227 a42.43542172550499,42.43542172550499 0 0,0 0.7271726751220414,-0.0437449024062948 l 1.103468818406246 21.407000283016213" fill="red" stroke="none" /><path d="M 98.9189461498227 79.02784411241856 l -0.34134451295534546 -6.6219923604138975 a27.63078418423528,27.63078418423528 0 0,0 0.4738998417885634,-0.020351298271921753 l 0.2276189105659619 6.626876227111648" fill="red" stroke="none" /><path d="M 99.27912038922189 79.0123766808444 l -0.518528914206135 -15.096403572438959 a36.10530612257877,36.10530612257877 0 0,0 0.619612934189402,-0.01595903126632968 l 0.25930266594598916 15.103080321055334" fill="red" stroke="none" /><path d="M 99.63950707515114 79.00309439819443 l -0.057978854796891674 -3.3769776246830134 a24.377475303420187,24.377475303420187 0 0,0 0.418471779645743,-0.0035920769316088123 l 8.272428639065536e-16 3.377475303420187" fill="red" stroke="none" /></svg>