<?xml version="1.0" encoding="utf-8" ?>
<svg baseProfile="full" height="200mm" version="1.1" viewBox="0,0,200,200" width="200mm" xmlns="http://www.w3.org/2000/svg" xmlns:ev="http://www.w3.org/2001/xml-events" xmlns:xlink="http://www.w3.org/1999/xlink"><defs /><rect fill="#1a1a1a" height="200" width="200" x="0" y="0" /><text alignment-baseline="middle" fill="#e1ed5e" style="dominant-baseline: central; font-size:9.0px; font-family:Arial;" text-anchor="middle" x="100.0" y="100.0">2025</text><line stroke="#e1ed5e" stroke-width="0.3" x1="100.0" x2="100.0" y1="15.0" y2="10.0" /><path d="M 100.0 14.0 a86.0,86.0 0 0,1 42.46469731375804,11.215312516191453" fill="none" id="id73" stroke="none" /><text fill="#e1ed5e" style="font-size:6.75px; font-family:Arial;" text-anchor="middle"><textPath startOffset="22.20632615414155" xlink:href="#id73">January</textPath></text><line stroke="#e1ed5e" stroke-width="0.3" x1="143.23703022742887" x2="145.7803849466894" y1="26.81831364943548" y2="22.513508569990506" /><path d="M 143.74570117128098 25.957352633546492 a86.0,86.0 0 0,1 28.547481713284135,27.462654790039103" fill="none" id="id74" stroke="none" /><text fill="#e1ed5e" style="font-size:6.75px; font-family:Arial;" text-anchor="middle"><textPath startOffset="19.985693538727396" xlink:href="#id74">February</textPath></text><line stroke="#e1ed5e" stroke-width="0.3" x1="172.23445277983987" x2="176.4835382374775" y1="55.19839476539836" y2="52.563006222186495" /><path d="M 173.08426987136738 54.67131705675599 a86.0,86.0 0 0,1 12.851231095245387,41.99856678651699" fill="none" id="id75" stroke="none" /><text fill="#e1ed5e" style="font-size:6.75px; font-family:Arial;" text-anchor="middle"><textPath startOffset="22.20632615414155" xlink:href="#id75">March</textPath></text><path d="M 120.6074358757038 95.95851677861258 l 40.0073062772545 -7.846141462124529 a61.7694308447606,61.7694308447606 0 0,0 0.19564518938758382,1.045144424847791 l -40.136437190551945 7.1563189598141745" fill="red" stroke="none" /><path d="M 120.96714384426684 98.82574320788733 l 47.46425357449348 -2.6582171876331615 a68.53863151165004,68.53863151165004 0 0,0 0.05583088960849092,1.1785018383864623 l -47.50297807233547 1.8408042426236995" fill="red" stroke="none" /><line stroke="#e1ed5e" stroke-width="0.3" x1="184.98032266829074" x2="189.97916517819016" y1="98.17113171792111" y2="98.06355123074" /><path d="M 185.9800911702706 98.14961562048488 a86.0,86.0 0 0,1 -9.607161424134198,41.387399972396054" fill="none" id="id76" stroke="none" /><text fill="#e1ed5e" style="font-size:6.75px; font-family:Arial;" text-anchor="middle"><textPath startOffset="21.466115282336823" xlink:href="#id76">April</textPath></text><path d="M 120.9764740272857 100.99374915477107 l 46.38388273145554 2.1974114524407766 a67.43590415117097,67.43590415117097 0 0,0 -0.06491074781399887,1.1590250067929067 l -46.33918563275402 -2.9955081755691064" fill="red" stroke="none" /><path d="M 120.81339534386255 102.79330883721812 l 42.76532781673751 5.739417627131554 a64.14874480180914,64.14874480180914 0 0,0 -0.15629673351802031,1.0931389901952657 l -42.660197032202895 -6.474702089307229" fill="red" stroke="none" /><path d="M 120.41448212921028 104.9243191809786 l 45.30612377324382 10.928605139248058 a67.60557114386742,67.60557114386742 0 0,0 -0.28261924938342287,1.1289234143710978 l -45.11129320956533 -11.706856393016551" fill="red" stroke="none" /><path d="M 119.12269723197855 108.67885076344098 l 45.038968485775634 20.440970292292022 a70.46050898194494,70.46050898194494 0 0,0 -0.5107560941636702,1.1001231878333075 l -44.68043777477214 -21.213213547404163" fill="red" stroke="none" /><path d="M 118.97047184881838 109.00673069616215 l 37.382022116510576 17.748098664312344 a62.38128301197839,62.38128301197839 0 0,0 -0.46888963674460166,0.96605153221672 l -37.070979223151255 -18.388939152494338" fill="red" stroke="none" /><line stroke="#e1ed5e" stroke-width="0.3" x1="174.80103733775053" x2="179.2010983576182" y1="140.37084112569926" y2="142.7455964860345" /><path d="M 175.68104954172406 140.8457921977663 a86.0,86.0 0 0,1 -30.038265399797805,32.042727171017184" fill="none" id="id77" stroke="none" /><text fill="#e1ed5e" style="font-size:6.75px; font-family:Arial;" text-anchor="middle"><textPath startOffset="22.206326154141568" xlink:href="#id77">May</textPath></text><path d="M 117.14729908036423 112.12312394758627 l 32.826877706057935 23.20857094622644 a61.202508196560444,61.202508196560444 0 0,0 -0.6155812613529222,0.8549885317605966 l -32.422516652329406 -23.77019308343817" fill="red" stroke="none" /><path d="M 116.71984013943494 112.70617746262583 l 31.728382115358844 24.111860543983507 a60.85062170845935,60.85062170845935 0 0,0 -0.64094012809302,0.828501515158969 l -31.308635170047754 -24.65444005325573" fill="red" stroke="none" /><path d="M 114.81725581225074 114.88116024355365 l 30.058808304536388 30.188447090198476 a63.60134146252414,63.60134146252414 0 0,0 -0.782448075990785,0.7657901258469325 l -29.534710276169807 -30.70138731896798" fill="red" stroke="none" /><path d="M 111.45004920935366 117.60387380957326 l 25.69890852820404 39.51077715934175 a68.13316678599222,68.13316678599222 0 0,0 -0.9886388478030228,0.6309960884960186 l -25.014987878354088 -39.947287676661574" fill="red" stroke="none" /><line stroke="#e1ed5e" stroke-width="0.3" x1="143.8653032363475" x2="146.44561519142675" y1="172.8068346515853" y2="177.08958963109032" /><path d="M 144.38136562736335 173.6633856474863 a86.0,86.0 0 0,1 -40.68145358897372,12.25698825130547" fill="none" id="id78" stroke="none" /><text fill="#e1ed5e" style="font-size:6.75px; font-family:Arial;" text-anchor="middle"><textPath startOffset="21.466115282336833" xlink:href="#id78">June</textPath></text><path d="M 109.89434966115114 118.52300852407294 l 22.213235112754035 41.58494064105159 a68.14589167991494,68.14589167991494 0 0,0 -1.0394166219295593,0.5437736507301779 l -21.494127588297978 -41.96114371072648" fill="red" stroke="none" /><path d="M 104.13013068566511 120.58985236759428 l 10.906348515960845 54.371186508109744 a76.45425466320197,76.45425466320197 0 0,0 -1.2925588766294756,0.2477219850220932 l -9.968822024759664 -54.55086569148031" fill="red" stroke="none" /><path d="M 102.70371172650421 120.8252237178851 l 5.3239167243703 41.00724043674369 a62.35139486794777,62.35139486794777 0 0,0 -1.0655336072667312,0.12902128082016848 l -4.617255694052188 -41.09280724628922" fill="red" stroke="none" /><line stroke="#e1ed5e" stroke-width="0.3" x1="102.19456741930631" x2="102.32365962044197" y1="184.97166512339345" y2="189.96999836594603" /><path d="M 102.22038585953345 185.97133177190398 a86.0,86.0 0 0,1 -42.740103519485714,-10.115201625700543" fill="none" id="id79" stroke="none" /><text fill="#e1ed5e" style="font-size:6.75px; font-family:Arial;" text-anchor="middle"><textPath startOffset="22.20632615414155" xlink:href="#id79">July</textPath></text><path d="M 95.16358092515715 120.4354850818985 l -14.509257224528554 61.30645524569551 a84.0,84.0 0 0,0 -1.4041868610271577,-0.3451149667438802 l 15.562397370298923 -61.0476190206376" fill="red" stroke="none" /><line stroke="#e1ed5e" stroke-width="0.3" x1="58.666819895761336" x2="56.23545636021788" y1="174.27360380694188" y2="178.64263932499728" /><path d="M 58.180547188652646 175.14741091055294 a86.0,86.0 0 0,1 -31.652253787137756,-30.449443065178592" fill="none" id="id80" stroke="none" /><text fill="#e1ed5e" style="font-size:6.75px; font-family:Arial;" text-anchor="middle"><textPath startOffset="22.20632615414155" xlink:href="#id80">August</textPath></text><line stroke="#e1ed5e" stroke-width="0.3" x1="26.63291911575756" x2="22.317208475507996" y1="142.92168965132927" y2="145.44649492493687" /><path d="M 25.769776987707644 143.4266507060508 a86.0,86.0 0 0,1 -11.730757126820373,-40.83630448921669" fill="none" id="id81" stroke="none" /><text fill="#e1ed5e" style="font-size:6.75px; font-family:Arial;" text-anchor="middle"><textPath startOffset="21.46611528233685" xlink:href="#id81">September</textPath></text><line stroke="#e1ed5e" stroke-width="0.3" x1="15.007084014347285" x2="10.007500721073583" y1="101.09737516637583" y2="101.16192664675087" /><path d="M 14.007167355692545 101.11028546245083 a86.0,86.0 0 0,1 10.666146001902534,-42.60595125391555" fill="none" id="id82" stroke="none" /><text fill="#e1ed5e" style="font-size:6.75px; font-family:Arial;" text-anchor="middle"><textPath startOffset="22.20632615414155" xlink:href="#id82">October</textPath></text><line stroke="#e1ed5e" stroke-width="0.3" x1="26.266209847984243" x2="21.928928074336255" y1="57.711370442889674" y2="55.22380399835377" /><path d="M 25.398753493254645 57.213857153982495 a86.0,86.0 0 0,1 29.58750427330803,-30.492523968695096" fill="none" id="id83" stroke="none" /><text fill="#e1ed5e" style="font-size:6.75px; font-family:Arial;" text-anchor="middle"><textPath startOffset="21.46611528233685" xlink:href="#id83">November</textPath></text><line stroke="#e1ed5e" stroke-width="0.3" x1="56.762969772571076" x2="54.21961505331055" y1="26.818313649435495" y2="22.513508569990535" /><path d="M 56.25429882871897 25.957352633546506 a86.0,86.0 0 0,1 42.265352541879196,-11.944610805530505" fill="none" id="id84" stroke="none" /><text fill="#e1ed5e" style="font-size:6.75px; font-family:Arial;" text-anchor="middle"><textPath startOffset="22.20632615414155" xlink:href="#id84">December</textPath></text></svg>