<?xml version="1.0" encoding="utf-8" ?>
<svg baseProfile="full" height="200mm" version="1.1" viewBox="0,0,200,200" width="200mm" xmlns="http://www.w3.org/2000/svg" xmlns:ev="http://www.w3.org/2001/xml-events" xmlns:xlink="http://www.w3.org/1999/xlink"><defs /><rect fill="#1a1a1a" height="200" width="200" x="0" y="0" /><text alignment-baseline="middle" fill="#e1ed5e" style="dominant-baseline: central; font-size:9.0px; font-family:Arial;" text-anchor="middle" x="100.0" y="100.0">2021</text><line stroke="#e1ed5e" stroke-width="0.3" x1="100.0" x2="100.0" y1="15.0" y2="10.0" /><path d="M 100.0 14.0 a86.0,86.0 0 0,1 42.46469731375804,11.215312516191453" fill="none" id="id25" stroke="none" /><text fill="#e1ed5e" style="font-size:6.75px; font-family:Arial;" text-anchor="middle"><textPath startOffset="22.20632615414155" xlink:href="#id25">January</textPath></text><line stroke="#e1ed5e" stroke-width="0.3" x1="143.23703022742887" x2="145.7803849466894" y1="26.81831364943548" y2="22.513508569990506" /><path d="M 143.74570117128098 25.957352633546492 a86.0,86.0 0 0,1 28.547481713284135,27.462654790039103" fill="none" id="id26" stroke="none" /><text fill="#e1ed5e" style="font-size:6.75px; font-family:Arial;" text-anchor="middle"><textPath startOffset="19.985693538727396" xlink:href="#id26">February</textPath></text><line stroke="#e1ed5e" stroke-width="0.3" x1="172.23445277983987" x2="176.4835382374775" y1="55.19839476539836" y2="52.563006222186495" /><path d="M 173.08426987136738 54.67131705675599 a86.0,86.0 0 0,1 12.851231095245387,41.99856678651699" fill="none" id="id27" stroke="none" /><text fill="#e1ed5e" style="font-size:6.75px; font-family:Arial;" text-anchor="middle"><textPath startOffset="22.20632615414155" xlink:href="#id27">March</textPath></text><line stroke="#e1ed5e" stroke-width="0.3" x1="184.98032266829074" x2="189.97916517819016" y1="98.17113171792111" y2="98.06355123074" /><path d="M 185.9800911702706 98.14961562048488 a86.0,86.0 0 0,1 -9.607161424134198,41.387399972396054" fill="none" id="id28" stroke="none" /><text fill="#e1ed5e" style="font-size:6.75px; font-family:Arial;" text-anchor="middle"><textPath startOffset="21.466115282336823" xlink:href="#id28">April</textPath></text><line stroke="#e1ed5e" stroke-width="0.3" x1="174.80103733775053" x2="179.2010983576182" y1="140.37084112569926" y2="142.7455964860345" /><path d="M 175.68104954172406 140.8457921977663 a86.0,86.0 0 0,1 -30.038265399797805,32.042727171017184" fill="none" id="id29" stroke="none" /><text fill="#e1ed5e" style="font-size:6.75px; font-family:Arial;" text-anchor="middle"><textPath startOffset="22.206326154141568" xlink:href="#id29">May</textPath></text><path d="M 115.07121518719521 114.62390073753431 l 35.349523222565466 34.300347537016826 a70.25548328077628,70.25548328077628 0 0,0 -0.8496208866860577,0.8606614725696274 l -34.75386171082387 -34.90374950356712" fill="red" stroke="none" /><path d="M 114.81725581225074 114.88116024355365 l 26.059477664136022 26.171867982645658 a57.93322420028662,57.93322420028662 0 0,0 -0.7127167252937066,0.6975433226860015 l -25.60511098646652 -26.61656140825423" fill="red" stroke="none" /><path d="M 114.55890576462653 115.13401014063108 l 36.16622677238583 37.59486128768764 a73.16674759070295,73.16674759070295 0 0,0 -0.9151563193452561,0.8653374211183055 l -35.51373461864977 -38.21183334555187" fill="red" stroke="none" /><path d="M 114.29624159901734 115.38237550388516 l 42.88872479705202 46.14712651165547 a84.0,84.0 0 0,0 -1.0676018021325442,0.9752289336536681 l -42.088023445452606 -46.878548211895726" fill="red" stroke="none" /><path d="M 114.0293411484842 115.62618273729858 l 34.811735091038344 38.77406131746736 a73.10839405603812,73.10839405603812 0 0,0 -0.9436471083622715,0.8326588571617463 l -34.13914562976949 -39.367543316401395" fill="red" stroke="none" /><path d="M 113.20401910651253 116.32954008644616 l 32.52776969026557 40.227412183756826 a72.73297296719788,72.73297296719788 0 0,0 -0.9803106205122292,0.7788180454240364 l -31.830501577035992 -40.78136414318599" fill="red" stroke="none" /><path d="M 112.92097659922987 116.55440617244103 l 32.24766254187313 41.31583241639787 a73.41096972652196,73.41096972652196 0 0,0 -1.002833248951095,0.7689297722922228 l -31.531700564428547 -41.86480153051746" fill="red" stroke="none" /><path d="M 112.63410532772338 116.77436683061366 l 31.32144094350449 41.585638746959965 a73.06148300586622,73.06148300586622 0 0,0 -1.0110840497625415,0.7479758084085558 l -30.600971923323385 -42.11862450410829" fill="red" stroke="none" /><path d="M 112.34349029814194 116.9893568818739 l 30.593591069113444 42.10846562981609 a73.04892594666619,73.04892594666619 0 0,0 -1.0236334588616385,0.7303352937437744 l -29.864230282402918 -42.62884518540408" fill="red" stroke="none" /><path d="M 111.1453310114006 117.79835938074945 l 28.08747348546212 44.85384477860419 a73.92233515463633,73.92233515463633 0 0,0 -1.0842674674858621,0.6660456366778676 l -27.31122681804395 -45.33067888211044" fill="red" stroke="none" /><line stroke="#e1ed5e" stroke-width="0.3" x1="143.8653032363475" x2="146.44561519142675" y1="172.8068346515853" y2="177.08958963109032" /><path d="M 144.38136562736335 173.6633856474863 a86.0,86.0 0 0,1 -40.68145358897372,12.25698825130547" fill="none" id="id30" stroke="none" /><text fill="#e1ed5e" style="font-size:6.75px; font-family:Arial;" text-anchor="middle"><textPath startOffset="21.466115282336833" xlink:href="#id30">June</textPath></text><path d="M 110.8373102113329 117.98757091392108 l 27.182058048212898 45.116286900899986 a73.67203834541374,73.67203834541374 0 0,0 -1.0918621590438946,0.6450914091897291 l -26.40142801814062 -45.577496882383464" fill="red" stroke="none" /><path d="M 110.5260780823613 118.17145234162733 l 26.883173309426255 46.409146764980235 a74.63314190533801,74.63314190533801 0 0,0 -1.1171914374518157,0.6343704550906232 l -26.08033310505324 -46.86502038586549" fill="red" stroke="none" /><path d="M 110.21172684928248 118.3499491758327 l 24.873521630271686 44.6964420881989 a72.15138330128826,72.15138330128826 0 0,0 -1.090438245330962,0.5945938747024726 l -24.100460573072073 -45.117976614661146" fill="red" stroke="none" /><path d="M 108.92500713936063 119.00905698771935 l 22.222911895974622 47.3317939209974 a73.28916263353256,73.28916263353256 0 0,0 -1.1465635946915238,0.5263311109297871 l -21.40488030551568 -47.70731210226126" fill="red" stroke="none" /><line stroke="#e1ed5e" stroke-width="0.3" x1="102.19456741930631" x2="102.32365962044197" y1="184.97166512339345" y2="189.96999836594603" /><path d="M 102.22038585953345 185.97133177190398 a86.0,86.0 0 0,1 -42.740103519485714,-10.115201625700543" fill="none" id="id31" stroke="none" /><text fill="#e1ed5e" style="font-size:6.75px; font-family:Arial;" text-anchor="middle"><textPath startOffset="22.20632615414155" xlink:href="#id31">July</textPath></text><line stroke="#e1ed5e" stroke-width="0.3" x1="58.666819895761336" x2="56.23545636021788" y1="174.27360380694188" y2="178.64263932499728" /><path d="M 58.180547188652646 175.14741091055294 a86.0,86.0 0 0,1 -31.652253787137756,-30.449443065178592" fill="none" id="id32" stroke="none" /><text fill="#e1ed5e" style="font-size:6.75px; font-family:Arial;" text-anchor="middle"><textPath startOffset="22.20632615414155" xlink:href="#id32">August</textPath></text><line stroke="#e1ed5e" stroke-width="0.3" x1="26.63291911575756" x2="22.317208475507996" y1="142.92168965132927" y2="145.44649492493687" /><path d="M 25.769776987707644 143.4266507060508 a86.0,86.0 0 0,1 -11.730757126820373,-40.83630448921669" fill="none" id="id33" stroke="none" /><text fill="#e1ed5e" style="font-size:6.75px; font-family:Arial;" text-anchor="middle"><textPath startOffset="21.46611528233685" xlink:href="#id33">September</textPath></text><line stroke="#e1ed5e" stroke-width="0.3" x1="15.007084014347285" x2="10.007500721073583" y1="101.09737516637583" y2="101.16192664675087" /><path d="M 14.007167355692545 101.11028546245083 a86.0,86.0 0 0,1 10.666146001902534,-42.60595125391555" fill="none" id="id34" stroke="none" /><text fill="#e1ed5e" style="font-size:6.75px; font-family:Arial;" text-anchor="middle"><textPath startOffset="22.20632615414155" xlink:href="#id34">October</textPath></text><line stroke="#e1ed5e" stroke-width="0.3" x1="26.266209847984243" x2="21.928928074336255" y1="57.711370442889674" y2="55.22380399835377" /><path d="M 25.398753493254645 57.213857153982495 a86.0,86.0 0 0,1 29.58750427330803,-30.492523968695096" fill="none" id="id35" stroke="none" /><text fill="#e1ed5e" style="font-size:6.75px; font-family:Arial;" text-anchor="middle"><textPath startOffset="21.46611528233685" xlink:href="#id35">November</textPath></text><line stroke="#e1ed5e" stroke-width="0.3" x1="56.762969772571076" x2="54.21961505331055" y1="26.818313649435495" y2="22.513508569990535" /><path d="M 56.25429882871897 25.957352633546506 a86.0,86.0 0 0,1 42.265352541879196,-11.944610805530505" fill="none" id="id36" stroke="none" /><text fill="#e1ed5e" style="font-size:6.75px; font-family:Arial;" text-anchor="middle"><textPath startOffset="22.20632615414155" xlink:href="#id36">December</textPath></text></svg>