<?xml version="1.0" encoding="utf-8" ?>
<svg baseProfile="full" height="200mm" version="1.1" viewBox="0,0,200,200" width="200mm" xmlns="http://www.w3.org/2000/svg" xmlns:ev="http://www.w3.org/2001/xml-events" xmlns:xlink="http://www.w3.org/1999/xlink"><defs /><rect fill="#1a1a1a" height="200" width="200" x="0" y="0" /><text alignment-baseline="middle" fill="#e1ed5e" style="dominant-baseline: central; font-size:9.0px; font-family:Arial;" text-anchor="middle" x="100.0" y="100.0">2025</text><line stroke="#e1ed5e" stroke-width="0.3" x1="100.0" x2="100.0" y1="15.0" y2="10.0" /><path d="M 100.0 14.0 a86.0,86.0 0 0,1 42.46469731375804,11.215312516191453" fill="none" id="id73" stroke="none" /><text fill="#e1ed5e" style="font-size:6.75px; font-family:Arial;" text-anchor="middle"><textPath startOffset="22.20632615414155" xlink:href="#id73">January</textPath></text><path d="M 100.0 79.0 l 0.0 -3.1292842754740597 a24.12928427547406,24.12928427547406 0 0,0 0.41534596401911644,0.0035750138417132062 l -0.05386548474658809 3.1288206382409056" fill="red" stroke="none" /><path d="M 100.36148047927253 79.00311137660856 l 0.3973449925761701 -23.080108145740724 a44.08352821953812,44.08352821953812 0 0,0 0.7586006154845947,0.01959241580814779 l -0.7945722432556326 23.069848937790216" fill="red" stroke="none" /><path d="M 100.72285384407766 79.0124445844662 l 1.0398392069772624 -30.191003559684145 a51.20890533463978,51.20890533463978 0 0,0 0.8806936011862868,0.03792451905528283 l -1.5593736405528809 30.16863131410467" fill="red" stroke="none" /><path d="M 101.08401301168833 79.027996857942 l 0.3659166684623768 -7.079255911118859 a28.088706459105914,28.088706459105914 0 0,0 0.482641489973778,0.029114252711955772 l -0.4877202072757667 7.071908389026599" fill="red" stroke="none" /><path d="M 101.80526077348638 79.07773832637324 l 2.9866312642029667 -34.61388058170243 a55.742491206484765,55.742491206484765 0 0,0 0.9552534256479469,0.09071282306424207 l -3.5820098169411576 34.55734221412301" fill="red" stroke="none" /><path d="M 102.16513564639614 79.11191278185805 l 3.804511019080085 -36.703916505740864 a57.900566268753906,57.900566268753906 0 0,0 0.9904672042560987,0.11129053099764491 l -4.435744926845909 36.63299002127262" fill="red" stroke="none" /><path d="M 102.52436894288641 79.15227682838746 l 3.59656068510823 -29.702513075330423 a50.91946743763734,50.91946743763734 0 0,0 0.8692323385055862,0.11285130467318005 l -4.107307752121662 29.636203447493106" fill="red" stroke="none" /><path d="M 102.88285421437855 79.19881850522331 l 4.704756444512962 -33.947083485153065 a55.27155103508066,55.27155103508066 0 0,0 0.9412771976174039,0.1387197908822503 l -5.288402622559022 33.86106921010985" fill="red" stroke="none" /><path d="M 103.2404852339499 79.25152402106235 l 5.226313771401207 -33.46352102093404 a54.86918355608284,54.86918355608284 0 0,0 0.9319159646409448,0.15377411912986522 l -5.801558942181027 33.36860063886455" fill="red" stroke="none" /><path d="M 103.59715602781102 79.31037775812273 l 1.4198394465384325 -8.166435252149004 a29.288944973969155,29.288944973969155 0 0,0 0.49596627288057626,0.09063466623229008 l -1.5602008405219097 8.140785104565975" fill="red" stroke="none" /><path d="M 104.307194497241 79.44645832069477 l 6.773831079228278 -32.32410783972574 a54.026243127611984,54.026243127611984 0 0,0 0.9085600403412681,0.19857603419249445 l -7.329233843723074 32.20271830743737" fill="red" stroke="none" /><path d="M 104.66035177308747 79.52364482259891 l 7.582268144602755 -33.31448421463737 a55.166440386788615,55.166440386788615 0 0,0 0.9241070001269637,0.21870627023034436 l -8.154598831692242 33.17903203226616" fill="red" stroke="none" /><path d="M 105.01212808612495 79.60689891045804 l 8.435132151378356 -34.32045225318608 a56.34182928591052,56.34182928591052 0 0,0 0.9398115235276284,0.23957888312366407 l -9.02465256359101 34.170170373893555" fill="red" stroke="none" /><path d="M 105.36241919743992 79.69619591428918 l 9.574547103350609 -36.25224389183324 a58.495294897189964,58.495294897189964 0 0,0 0.9713063238634113,0.2654947096208205 l -10.197151316437731 36.08206264138612" fill="red" stroke="none" /><path d="M 105.71112130821622 79.79150937346287 l 9.98302073464022 -35.3243732802996 a57.707928988628616,57.707928988628616 0 0,0 0.9535817082845688,0.27837664958042246 l -10.589592660648215 35.147298301800475" fill="red" stroke="none" /><path d="M 106.0581310904928 79.89281104454417 l 0.9261835710208899 -3.074041778194836 a24.2105371608683,24.2105371608683 0 0,0 0.39799197916487883,0.12365804525221223 l -0.978960922896487 3.0576435980601033" fill="red" stroke="none" /><path d="M 106.40334571778207 80.00007090966166 l 2.265247882049271 -7.0751758548993005 a28.428960986899767,28.428960986899767 0 0,0 0.46476907869537365,0.15322705796603112 l -2.386699782987062 7.035135072674033" fill="red" stroke="none" /><path d="M 106.74666289553966 80.11325718540242 l 8.332641066139939 -24.56163771843893 a46.936594891175744,46.936594891175744 0 0,0 0.7628716430642901,0.2661509368877587 l -8.754194713267502 24.414565928378966" fill="red" stroke="none" /><path d="M 107.08798089147638 80.2323363322302 l 7.862219272056167 -21.926936405706318 a44.293884004643374,44.293884004643374 0 0,0 0.7154889673597334,0.26352062493837364 l -8.238490565188478 21.78835251296162" fill="red" stroke="none" /><path d="M 107.4271985657038 80.35727306442388 l 10.223417598501038 -27.03789301702746 a49.90615723671279,49.90615723671279 0 0,0 0.8009150075688527,0.3107425799755135 l -10.687315771069558 26.8579077331614" fill="red" stroke="none" /><path d="M 107.76421540070413 80.48803036053334 l 10.098887009261698 -25.37914863866968 a48.31462436954833,48.31462436954833 0 0,0 0.7700801957745625,0.3141350474186368 l -10.534251074624649 25.201552705067463" fill="red" stroke="none" /><path d="M 108.09893153111575 80.62456947434976 l 10.912080637112354 -26.105451004539667 a49.29431172481959,49.29431172481959 0 0,0 0.7800619254621357,0.3339818067122222 l -11.359826320364805 25.913749669864654" fill="red" stroke="none" /><path d="M 108.43124777332544 80.76684994638697 l 8.370632784241515 -19.094876667289657 a41.84902415336559,41.84902415336559 0 0,0 0.657264594785504,0.2948954648771781 l -8.698079497493799 18.947960871895948" fill="red" stroke="none" /><path d="M 108.76106565485865 80.91482961587045 l 5.364153894759203 -11.685312618493699 a33.857708893834406,33.857708893834406 0 0,0 0.5275704793113335,0.24770141398447507 l -5.564502585370135 11.591246221869222" fill="red" stroke="none" /><path d="M 109.08828744355905 81.06846463323043 l 3.4219482849156195 -7.128156474083418 a28.906980762823082,28.906980762823082 0 0,0 0.4467212305482284,0.2192041677410121 l -3.54414078247428 7.068197146207574" fill="red" stroke="none" /><path d="M 109.41281617654863 81.2277094730956 l 1.5527269238694128 -3.0966546437445572 a24.464134940029574,24.464134940029574 0 0,0 0.3748132784365716,0.19199391904192833 l -1.60580068989474 3.069468199390128" fill="red" stroke="none" /><line stroke="#e1ed5e" stroke-width="0.3" x1="143.23703022742887" x2="145.7803849466894" y1="26.81831364943548" y2="22.513508569990506" /><path d="M 143.74570117128098 25.957352633546492 a86.0,86.0 0 0,1 28.547481713284135,27.462654790039103" fill="none" id="id74" stroke="none" /><text fill="#e1ed5e" style="font-size:6.75px; font-family:Arial;" text-anchor="middle"><textPath startOffset="19.985693538727396" xlink:href="#id74">February</textPath></text><path d="M 110.99172775467656 82.1063720568725 l 3.358341751091368 -5.467103911333049 a27.41620483576051,27.41620483576051 0 0,0 0.39999047982456953,0.2504740017709483 l -3.451951383288201 5.408485568239156" fill="red" stroke="none" /><path d="M 111.60114157652 82.49532879139004 l 2.9073568521125663 -4.38683774753104 a26.26280051766064,26.26280051766064 0 0,0 0.37467674984897953,0.2529834140190032 l -2.9824382963680875 4.336142421213367" fill="red" stroke="none" /><path d="M 111.90073688211348 82.69761687909136 l 18.778481390137117 -27.30187909030585 a54.13644466718489,54.13644466718489 0 0,0 0.7632435942669603,0.5347009134688406 l -19.245656123987725 26.974593334073074" fill="red" stroke="none" /><path d="M 112.19680574252982 82.90503203632743 l 14.220243328146493 -19.93100564704666 a45.48387850023563,45.48387850023563 0 0,0 0.6334272998947201,0.46021187177311706 l -14.561215944395002 19.683274540456868" fill="red" stroke="none" /><path d="M 112.48926042617603 83.11751280151076 l 21.805542490568868 -29.475868017099 a57.66481254103782,57.66481254103782 0 0,0 0.7929017340012621,0.5971971474728995 l -22.309690378328515 29.096154280120253" fill="red" stroke="none" /><path d="M 112.77801427241765 83.33499621200491 l 15.9076607139376 -20.74666848887098 a47.143410695180265,47.143410695180265 0 0,0 0.6397303469940526,0.49931968306347996 l -16.262423616091084 20.46977041658428" fill="red" stroke="none" /><path d="M 113.06298171725822 83.55741782278167 l 13.431318661898676 -16.90621372874647 a42.59213707902771,42.59213707902771 0 0,0 0.5701192847995242,0.460996812502542 l -13.72034134526269 16.672510818979795" fill="red" stroke="none" /><path d="M 113.34407831869373 83.78471172551755 l 23.098525949273174 -28.068574542040242 a57.35088414126011,57.35088414126011 0 0,0 0.7568745375467201,0.6338606586489348 l -23.57825802377901 27.666812725997488" fill="red" stroke="none" /><path d="M 113.6212207817346 84.01681056812373 l 7.444802426343176 -8.735757930206747 a32.47774149310113,32.47774149310113 0 0,0 0.42237488608158186,0.3662793390587058 l -7.594071111071522 8.60631359772837" fill="red" stroke="none" /><path d="M 113.89432698308785 84.25364557470407 l 17.7239064054233 -20.08639298616424 a47.788057814310335,47.788057814310335 0 0,0 0.6121172607703366,0.5495649205307651 l -18.067034653789626 19.778329056864177" fill="red" stroke="none" /><path d="M 114.16331599549186 84.49514656593476 l 7.63784462786939 -8.361294879318612 a32.32465993389616,32.32465993389616 0 0,0 0.4075864337861091,0.3788071698299361 l -7.780638945450345 8.228583123414035" fill="red" stroke="none" /><path d="M 114.42810811169701 84.74124197986012 l 22.977987544952864 -24.300868071121275 a54.444283526875715,54.444283526875715 0 0,0 0.6754118165841672,0.6497456324258879 l -23.39288260514945 23.901739351933088" fill="red" stroke="none" /><path d="M 114.94478906791727 85.2469230424477 l 11.680101863448762 -11.530269238354935 a37.41255276456083,37.41255276456083 0 0,0 0.4484798341396668,0.46219789157131586 l -11.876845961291536 11.327507151233505" fill="red" stroke="none" /><path d="M 115.19652480421416 85.50635884689758 l 22.98930929228915 -21.925986601076197 a52.76880907694063,52.76880907694063 0 0,0 0.6212463802153037,0.6627023232624831 l -23.363322994474917 21.527014860935658" fill="red" stroke="none" /><path d="M 115.4437574822437 85.77008943001954 l 18.949138634637798 -17.459776123723696 a46.76652163729662,46.76652163729662 0 0,0 0.5403901848360854,0.5967123391339026 l -19.246872460089918 17.131010997320242" fill="red" stroke="none" /><path d="M 115.68641384162765 86.03803664274999 l 27.047743802624453 -24.074311163866632 a57.20984538529657,57.20984538529657 0 0,0 0.648400413578756,0.7412337600654176 l -27.458136079781056 23.605161847598268" fill="red" stroke="none" /><path d="M 115.9244219780498 86.31012108654704 l 16.14619296915097 -13.880530606737414 a42.292455878118766,42.292455878118766 0 0,0 0.46982767075854714,0.5561277709023039 l -16.382731253396635 13.600543886206005" fill="red" stroke="none" /><path d="M 116.15771136456269 86.58626213691792 l 27.249478594845247 -22.621852472162463 a56.41584804805911,56.41584804805911 0 0,0 0.6138622071318901,0.7525224820592991 l -27.634839294053545 22.149445820495064" fill="red" stroke="none" /><path d="M 116.82858285166822 87.43820079747576 l 28.555262941356506 -21.315251700415402 a56.633453336746214,56.633453336746214 0 0,0 0.5764136362155993,0.7862275520114039 l -28.917939190085733 20.820561704732505" fill="red" stroke="none" /><path d="M 117.04232023915458 87.72973835380427 l 28.371247530189923 -20.426950411635044 a55.95980534183085,55.95980534183085 0 0,0 0.5561002463367314,0.7865643611190394 l -28.718660396330534 19.935559550184212" fill="red" stroke="none" /><path d="M 117.2510076193507 88.02491185347247 l 25.072674533090623 -17.404634803254297 a51.521473111187504,51.521473111187504 0 0,0 0.499452924673523,0.7328855377045016 l -25.36855192343288 16.970471242279388" fill="red" stroke="none" /><path d="M 117.45458315368197 88.32363383020206 l 22.1771457274076 -14.835557620266455 a47.68182082465361,47.68182082465361 0 0,0 0.4504873182796114,0.6861230918982615 l -22.429229681045136 14.451616464390519" fill="red" stroke="none" /><path d="M 117.65298651832404 88.62581576622439 l 31.39844724474498 -20.23066880187701 a58.351605715849395,58.351605715849395 0 0,0 0.5367580923351838,0.8490223993395692 l -31.742032933326115 19.687198754823232" fill="red" stroke="none" /><line stroke="#e1ed5e" stroke-width="0.3" x1="172.23445277983987" x2="176.4835382374775" y1="55.19839476539836" y2="52.563006222186495" /><path d="M 173.08426987136738 54.67131705675599 a86.0,86.0 0 0,1 12.851231095245387,41.99856678651699" fill="none" id="id75" stroke="none" /><text fill="#e1ed5e" style="font-size:6.75px; font-family:Arial;" text-anchor="middle"><textPath startOffset="22.20632615414155" xlink:href="#id75">March</textPath></text><path d="M 117.84615892207809 88.93136811851018 l 6.088801833111494 -3.7764264223084587 a28.164838050229143,28.164838050229143 0 0,0 0.251987053022147,0.414200459634009 l -6.152904684419864 3.6710581894673684" fill="red" stroke="none" /><path d="M 118.21658344932153 89.55222093294921 l 26.058286740781096 -14.94524060952164 a51.039882235808825,51.039882235808825 0 0,0 0.43053929178131545,0.7658813592137876 l -26.311683673854844 14.494475740373058" fill="red" stroke="none" /><path d="M 118.3937258080291 89.86733742301442 l 20.77793181264353 -11.446064506040956 a44.72203286161021,44.72203286161021 0 0,0 0.36563861089638744,0.677472815109948 l -20.97187852275838 11.08671070759855" fill="red" stroke="none" /><path d="M 118.56541770881063 90.18545643968196 l 22.321371349723584 -11.800115401331952 a46.248491884011855,46.248491884011855 0 0,0 0.36600300389017565,0.7070013070994696 l -22.52118378677388 11.41414137197214" fill="red" stroke="none" /><path d="M 118.73160827565052 90.50648371742162 l 22.098754594274723 -11.20004665259664 a45.77490665246429,45.77490665246429 0 0,0 0.3501562100814674,0.7058935527026758 l -22.2882708173096 10.817993511395013" fill="red" stroke="none" /><path d="M 118.89224826269711 90.83032412892265 l 25.698895643872987 -12.473398614195142 a49.56604470876707,49.56604470876707 0 0,0 0.3659432902746434,0.7707698964927596 l -25.909797127989386 12.029186302061841" fill="red" stroke="none" /><path d="M 119.196687751892 91.48605970444005 l 16.60746363467493 -7.36559117248597 a39.167547487133575,39.167547487133575 0 0,0 0.2680352593609076,0.6186623336155744 l -16.731789603878518 7.078629694283792" fill="red" stroke="none" /><path d="M 119.34039704204932 91.81776055985345 l 23.331812261101533 -9.870866356973771 a46.33391927879546,46.33391927879546 0 0,0 0.30443219152568074,0.7372066991242626 l -23.49826613951341 9.467785087396207" fill="red" stroke="none" /><path d="M 119.47837535516314 92.15188598940014 l 22.24739660357138 -8.9637919898478 a44.98533348681771,44.98533348681771 0 0,0 0.2832072022704779,0.7207314388921339 l -22.39839735572356 8.579511546059882" fill="red" stroke="none" /><path d="M 119.61058180528143 92.48833698450437 l 22.439439693260038 -8.595232456943783 a45.02928369170321,45.02928369170321 0 0,0 0.27102356388999443,0.7262084067867737 l -22.584067845651656 8.207700913127676" fill="red" stroke="none" /><path d="M 119.7369772167798 92.82701384747503 l 17.17236275971036 -6.240931371031642 a39.271268897616665,39.271268897616665 0 0,0 0.22543002277605884,0.6373210311212585 l -17.277245863296226 5.944412713483769" fill="red" stroke="none" /><path d="M 119.85752413597 93.16781622104841 l 25.27026681264315 -8.694493121344276 a47.724157524967495,47.724157524967495 0 0,0 0.260580050203577,0.7791011828538716 l -25.4161841566185 8.25821883556809" fill="red" stroke="none" /><path d="M 119.97218684219823 93.5106431181261 l 10.771153619248693 -3.4997599620442554 a32.325461142107294,32.325461142107294 0 0,0 0.16739126827943365,0.5306760642347974 l -10.829800371296333 3.313833731383039" fill="red" stroke="none" /><path d="M 120.18372546131832 94.20196356495316 l 22.53563796562443 -6.473653749508596 a44.44702905244543,44.44702905244543 0 0,0 0.20490763910942497,0.7371618007417237 l -22.64373237530022 6.08478064534792" fill="red" stroke="none" /><path d="M 120.28053869075195 94.5502522615342 l 25.322042563666038 -6.804491059086212 a47.22035350961727,47.22035350961727 0 0,0 0.20418006233591782,0.7867890704696175 l -25.43541895787226 6.367605563067744" fill="red" stroke="none" /><path d="M 120.37134235888165 94.90015583598534 l 25.623070473225884 -6.414583001696252 a47.4137959324583,47.4137959324583 0 0,0 0.19138736715235427,0.7934241958930012 l -25.72969064063906 5.972573574143845" fill="red" stroke="none" /><path d="M 120.45610955862082 95.25157060432595 l 25.402166167067303 -5.896546075676749 a47.077563183738576,47.077563183738576 0 0,0 0.17644135565840247,0.7909520007435178 l -25.499901909727743 5.4584159053832675" fill="red" stroke="none" /><path d="M 120.53481517161879 95.60439243477599 l 29.662479392624096 -6.34944204424712 a51.33443749257768,51.33443749257768 0 0,0 0.17752109497707486,0.8656559044418772 l -29.76737978351617 5.837910483641831" fill="red" stroke="none" /><path d="M 120.6074358757038 95.95851677861258 l 24.13694457020007 -4.733682399130137 a45.596744545584585,45.596744545584585 0 0,0 0.14442068835793478,0.7715010920659771 l -24.214850982467862 4.317503229601597" fill="red" stroke="none" /><path d="M 120.67395015179393 96.31383870115 l 7.990611247341064 -1.4247244342682248 a29.116631556238982,29.116631556238982 0 0,0 0.08372853230870494,0.49417053728643406 l -8.013951641169992 1.2869681086659528" fill="red" stroke="none" /><path d="M 120.73433829027371 96.67025291283417 l 23.56769172921103 -3.7847580080901015 a44.86965618987681,44.86965618987681 0 0,0 0.11590068627169785,0.7636407118535274 l -23.62934830892203 3.3785181838444918" fill="red" stroke="none" /><path d="M 120.78858239683441 97.02765380044208 l 27.667569413444767 -3.955902005592264 a48.94894556017513,48.94894556017513 0 0,0 0.11207910211587552,0.8351194937850492 l -27.73156451461848 3.4790641697425504" fill="red" stroke="none" /><path d="M 120.83666639777658 97.38593545837742 l 21.678661444726472 -2.7196970528139266 a42.84859524303919,42.84859524303919 0 0,0 0.08551283337751771,0.7326217345712929 l -21.722264631107578 2.346131579917781" fill="red" stroke="none" /><path d="M 120.87857604477298 97.74499172005257 l 22.86459735567752 -2.469510192847901 a43.99757145504358,43.99757145504358 0 0,0 0.07484379597027072,0.7536668115218691 l -22.903718277330018 2.0755678506215967" fill="red" stroke="none" /><path d="M 120.91429891909075 98.10471618934814 l 16.797432809201073 -1.5222074900503197 a37.86626409796757,37.86626409796757 0 0,0 0.05323909491999174,0.6496518077063256 l -16.82114638794056 1.2328417651362253" fill="red" stroke="none" /><path d="M 120.96714384426684 98.82574320788733 l 21.31971824466857 -1.1940025852198197 a42.353126895271465,42.353126895271465 0 0,0 0.03450043720033099,0.7282497010318685 l -21.3371122901024 0.8268417775649515" fill="red" stroke="none" /><path d="M 120.98425023603335 99.18683210126433 l 6.3109508480867555 -0.2445578270578642 a27.315687542757495,27.315687542757495 0 0,0 0.014162931053317786,0.46999873108615975 l -6.314225473595719 0.13588894854670536" fill="red" stroke="none" /><line stroke="#e1ed5e" stroke-width="0.3" x1="184.98032266829074" x2="189.97916517819016" y1="98.17113171792111" y2="98.06355123074" /><path d="M 185.9800911702706 98.14961562048488 a86.0,86.0 0 0,1 -9.607161424134198,41.387399972396054" fill="none" id="id76" stroke="none" /><text fill="#e1ed5e" style="font-size:6.75px; font-family:Arial;" text-anchor="middle"><textPath startOffset="21.466115282336823" xlink:href="#id76">April</textPath></text><path d="M 120.99513854157772 99.54816195383933 l 23.342245863592442 -0.5023503294879885 a44.3476507985265,44.3476507985265 0 0,0 0.009855722410607592,0.7633365620887285 l -23.347434593120767 0.10047750933879734" fill="red" stroke="none" /><path d="M 120.99980553446 99.90962569577887 l 25.56011940395862 -0.10999997134026634 a46.560356099599176,46.560356099599176 0 0,0 -0.003449241532659588,0.8014822581650646 l -25.558225865136457 -0.329991765028483" fill="red" stroke="none" /><path d="M 120.99824983174949 100.27111621757518 l 22.464511624318316 0.29004766921336916 a43.4663840029843,43.4663840029843 0 0,0 -0.016098990956409837,0.7480568499741029 l -22.4561905706769 -0.6766943349775869" fill="red" stroke="none" /><path d="M 120.9904718944345 100.63252640178507 l 26.234141062037565 0.7905390090011425 a47.246049401531614,47.246049401531614 0 0,0 -0.031492567753720495,0.8126832396444531 l -26.21664636143264 -1.2419994956596019" fill="red" stroke="none" /><path d="M 120.9764740272857 100.99374915477107 l 31.642796414280816 1.499060430765509 a52.67828510337499,52.67828510337499 0 0,0 -0.05070573194887211,0.9053849061311605 l -31.612304331444417 -2.043517053232093" fill="red" stroke="none" /><path d="M 120.95626037817324 101.35467743843564 l 24.147909536469268 1.560995504165011 a45.19831072503878,45.19831072503878 0 0,0 -0.056871186281623784,0.7759621524448868 l -24.117461791523308 -1.976430793106668" fill="red" stroke="none" /><path d="M 120.92983693683757 101.71520430193887 l 24.67868384569118 2.0224230521269693 a45.76141416311583,45.76141416311583 0 0,0 -0.07109450533350554,0.7845219421456542 l -24.6402147440806 -2.446926382821194" fill="red" stroke="none" /><path d="M 120.89721153311464 102.0752229133903 l 25.425087823502064 2.5248691550392763 a46.55014784855191,46.55014784855191 0 0,0 -0.0860461716317403,0.7966806835036343 l -25.377859350369274 -2.962146160427702" fill="red" stroke="none" /><path d="M 120.8583938346157 102.4346265915055 l 24.30100726336781 2.836454184961161 a45.465985088641716,45.465985088641716 0 0,0 -0.09742384331400883,0.7765638873871346 l -24.248581910806955 -3.2543358266356903" fill="red" stroke="none" /><path d="M 120.81339534386255 102.79330883721812 l 34.98895194775329 4.695771500322713 a56.302649027876534,56.302649027876534 0 0,0 -0.1371799270376443,0.9594360901963535 l -34.902937969699046 -5.297353062499476" fill="red" stroke="none" /><path d="M 120.76222939487914 103.15116336523771 l 17.304067089835957 2.6263047790308782 a38.502234561389706,38.502234561389706 0 0,0 -0.1050895494394774,0.6543927246754343 l -17.256295786035192 -2.9237767333995177" fill="red" stroke="none" /><path d="M 120.70491114924044 103.5080841355445 l 4.046495395003005 0.6856076897622754 a25.104166527571913,25.104166527571913 0 0,0 -0.07585469896589966,0.4254334355063627 l -4.0340942536979165 -0.7551598760018564" fill="red" stroke="none" /><path d="M 120.5718875245553 104.21870165774334 l 22.308829444850822 4.574898421399959 a43.773088652301226,43.773088652301226 0 0,0 -0.15772061099412116,0.736818186669495 l -22.226774795132258 -4.958230427485623" fill="red" stroke="none" /><path d="M 120.49622156327973 104.57218783832717 l 17.226011140419995 3.8426867311105317 a38.6494107868599,38.6494107868599 0 0,0 -0.1504371888016912,0.6480794720506589 l -17.15731338568775 -4.138634860509756" fill="red" stroke="none" /><path d="M 120.41448212921028 104.9243191809786 l 41.2950978210828 9.961077679740882 a63.479502970192925,63.479502970192925 0 0,0 -0.2653705778550484,1.060023545739856 l -41.11751592893269 -10.670429064878133" fill="red" stroke="none" /><path d="M 120.32669344350535 105.2749913415812 l 10.96178676833147 2.844699284313911 a32.324887777481194,32.324887777481194 0 0,0 -0.14440285259246116,0.537376733676266 l -10.91119583939723 -3.0329669511657253" fill="red" stroke="none" /><path d="M 120.23288151984713 105.62410040840565 l 52.45737654448112 14.58148966860232 a75.44626887937349,75.44626887937349 0 0,0 -0.3585758644586956,1.2482496249147437 l -52.198608043136325 -15.482296769021646" fill="red" stroke="none" /><path d="M 119.9155931802556 106.66101706037122 l 21.023704648043097 7.0316386795677435 a43.16844829139248,43.16844829139248 0 0,0 -0.24176215871527515,0.7026739995845714 l -20.899551658384592 -7.392485382241615" fill="red" stroke="none" /><path d="M 119.79798401119884 107.00284435728193 l 30.835700141748383 10.907050365245967 a53.7078606897766,53.7078606897766 0 0,0 -0.3157913232618333,0.8689220946399719 l -30.643384557481326 -11.43622025689207" fill="red" stroke="none" /><path d="M 119.67450827220406 107.3425965602758 l 22.058947540347848 8.23247778760965 a44.545081378311366,44.545081378311366 0 0,0 -0.274282563723258,0.716065223181795 l -21.913970697031083 -8.61096657762459" fill="red" stroke="none" /><path d="M 119.54520255179757 107.68017299344265 l 27.93281755129548 10.976037235720034 a51.011925792155914,51.011925792155914 0 0,0 -0.32817037220076944,0.8144919507459697 l -27.739744564837316 -11.455228554308817" fill="red" stroke="none" /><path d="M 119.41010516605496 108.01547362559984 l 7.427088108016239 3.0670430858314583 a29.03544591510532,29.03544591510532 0 0,0 -0.19474352703744602,0.46031617160861404 l -7.373193599786484 -3.194433783106236" fill="red" stroke="none" /><path d="M 119.12269723197855 108.67885076344098 l 31.266007763682985 14.190101535248543 a55.33543684095701,55.33543684095701 0 0,0 -0.40111705121190444,0.8639704432623573 l -31.01711609563125 -14.72619204578973" fill="red" stroke="none" /><path d="M 118.97047184881838 109.00673069616215 l 31.595415181546766 15.00075475409697 a55.975604407742246,55.975604407742246 0 0,0 -0.4207412792754837,0.8668516547579327 l -31.33252064565657 -15.542395364820178" fill="red" stroke="none" /><path d="M 118.81262510543309 109.33194174019688 l 13.915631150577582 6.902803752664762 a36.53362449548488,36.53362449548488 0 0,0 -0.28430350059909926,0.5609577785621133 l -13.794748980192214 -7.14131574292957" fill="red" stroke="none" /><path d="M 118.64920377521936 109.65438752849418 l 20.221718050036344 10.468452428323593 a43.77073510318101,43.77073510318101 0 0,0 -0.35214075756357416,0.6661176056009006 l -20.03852478424788 -10.814985049010629" fill="red" stroke="none" /><line stroke="#e1ed5e" stroke-width="0.3" x1="174.80103733775053" x2="179.2010983576182" y1="140.37084112569926" y2="142.7455964860345" /><path d="M 175.68104954172406 140.8457921977663 a86.0,86.0 0 0,1 -30.038265399797805,32.042727171017184" fill="none" id="id77" stroke="none" /><text fill="#e1ed5e" style="font-size:6.75px; font-family:Arial;" text-anchor="middle"><textPath startOffset="22.206326154141568" xlink:href="#id77">May</textPath></text><path d="M 118.12598468904814 110.60418214915192 l 2.989905271252569 1.7491739427667319 a24.46397791752748,24.46397791752748 0 0,0 -0.2157712650867784,0.3616450514254199 l -2.9593531304675635 -1.800381088078256" fill="red" stroke="none" /><path d="M 117.55443506779139 111.5257021239791 l 17.05490911979501 11.197728751006931 a41.402427656178425,41.402427656178425 0 0,0 -0.39627425654043535,0.592376246330772 l -16.859631757843854 -11.48964191154351" fill="red" stroke="none" /><path d="M 117.35343817320211 111.8261652097733 l 17.107458422413455 11.65853288573173 a41.70233133543885,41.70233133543885 0 0,0 -0.4093562262243517,0.5897081751062202 l -16.904241289026967 -11.951282323024971" fill="red" stroke="none" /><path d="M 117.14729908036423 112.12312394758627 l 32.46246713536013 22.95093302344483 a60.75622088630894,60.75622088630894 0 0,0 -0.611092456670472,0.8487539746586253 l -32.06259488631406 -23.506320603554585" fill="red" stroke="none" /><path d="M 116.93607887273984 112.41649034213515 l 21.02641951287938 15.4152762733983 a47.07184420244934,47.07184420244934 0 0,0 -0.48470266498398196,0.6493384287235093 l -20.757955581200306 -15.774927581631124" fill="red" stroke="none" /><path d="M 116.71984013943494 112.70617746262583 l 12.216508576303374 9.283888162189514 a36.34384766617997,36.34384766617997 0 0,0 -0.3828100638011439,0.49483361077888366 l -12.05489169528416 -9.49279976708165" fill="red" stroke="none" /><path d="M 116.27256486870786 113.27417163493432 l 23.003421909900435 18.76479664309207 a50.68627650315018,50.68627650315018 0 0,0 -0.5573173330990133,0.6713246299128584 l -22.677008576907877 -19.157982530118698" fill="red" stroke="none" /><path d="M 116.0416608686014 113.55231037782055 l 20.20212000553928 17.06714802461201 a47.446421202352276,47.446421202352276 0 0,0 -0.5324335500187681,0.6193405054472757 l -19.90534394594973 -17.412365629220815" fill="red" stroke="none" /><path d="M 115.80600337817218 113.82643327865902 l 8.390376015201058 7.339551395847785 a32.14752996716099,32.14752996716099 0 0,0 -0.36792258729866617,0.4133649271506201 l -8.262794578254054 -7.482890492739271" fill="red" stroke="none" /><path d="M 115.56566222782051 114.09645910891815 l 27.969847099233 25.32984463791986 a58.734776746863496,58.734776746863496 0 0,0 -0.6851092637958837,0.7435507951274952 l -27.529691427441396 -25.80754668784869" fill="red" stroke="none" /><path d="M 115.32070863581623 114.36230785411682 l 16.366018804874578 15.342227700380185 a43.43280014469485,43.43280014469485 0 0,0 -0.5160094805413394,0.5410338773688775 l -16.099502772954274 -15.62166869433157" fill="red" stroke="none" /><path d="M 114.81725581225074 114.88116024355365 l 16.95474106878127 17.02786412878762 a45.02938620726444,45.02938620726444 0 0,0 -0.5539687652921677,0.5421750318079318 l -16.659122351113307 -17.317189263518124" fill="red" stroke="none" /><path d="M 114.55890576462653 115.13401014063108 l 19.392055282897985 20.15807822673856 a48.97141265453504,48.97141265453504 0 0,0 -0.6125254877908043,0.5791810806194749 l -19.04219396071637 -20.488893944103957" fill="red" stroke="none" /><path d="M 114.29624159901734 115.38237550388516 l 17.761870715405507 19.111300204566266 a47.090723386288744,47.090723386288744 0 0,0 -0.5985016803681786,0.5467170946784551 l -17.430269485570467 -19.414210065831305" fill="red" stroke="none" /><path d="M 114.0293411484842 115.62618273729858 l 13.86536492685877 15.44354248523174 a41.75455008059975,41.75455008059975 0 0,0 -0.5389471476329246,0.47555819547568917 l -13.597475426319258 -15.679923822479719" fill="red" stroke="none" /><path d="M 113.75828350139079 115.86535959552629 l 6.635331979270789 7.6515306488766965 a31.12786017606054,31.12786017606054 0 0,0 -0.4078261416531775,0.34755828551603074 l -6.502640361040564 -7.7646133246156745" fill="red" stroke="none" /><path d="M 113.48314897796784 116.09983520530334 l 18.97841369663039 22.661570637030298 a50.5588729517477,50.5588729517477 0 0,0 -0.6720234146641252,0.5530295191474393 l -18.585520153421573 -22.984895275034916" fill="red" stroke="none" /><path d="M 112.63410532772338 116.77436683061366 l 13.613116255882307 18.07420469124014 a43.62728020370575,43.62728020370575 0 0,0 -0.603749682236073,0.4466395813018647 l -13.299981603227671 -18.305854221281773" fill="red" stroke="none" /><path d="M 112.34349029814194 116.9893568818739 l 11.30079103498664 15.554204467578327 a40.22605405785774,40.22605405785774 0 0,0 -0.5636870675095722,0.4021757558481838 l -11.031376639628183 -15.74642448527073" fill="red" stroke="none" /><path d="M 112.04921762599082 117.19931262002967 l 14.250926874733661 20.342079797365376 a45.83725281248687,45.83725281248687 0 0,0 -0.6501100084761712,0.44715159184946085 l -13.898659981634607 -20.58437217857993" fill="red" stroke="none" /><path d="M 111.7513745106137 117.40417183066458 l 15.157594575523376 22.448895683963798 a48.087000401399635,48.087000401399635 0 0,0 -0.6899918991734862,0.4572890066639082 l -14.768927977609925 -22.706482711719023" fill="red" stroke="none" /><path d="M 111.45004920935366 117.60387380957326 l 34.35014762806101 52.81162142871979 a84.0,84.0 0 0,0 -1.2188727918122781,0.7779422847047646 l -33.4359930342018 -53.39507814224836" fill="red" stroke="none" /><line stroke="#e1ed5e" stroke-width="0.3" x1="143.8653032363475" x2="146.44561519142675" y1="172.8068346515853" y2="177.08958963109032" /><path d="M 144.38136562736335 173.6633856474863 a86.0,86.0 0 0,1 -40.68145358897372,12.25698825130547" fill="none" id="id78" stroke="none" /><text fill="#e1ed5e" style="font-size:6.75px; font-family:Arial;" text-anchor="middle"><textPath startOffset="21.466115282336833" xlink:href="#id78">June</textPath></text><path d="M 110.21172684928248 118.3499491758327 l 11.781026827316692 21.16990071425309 a45.22720143469503,45.22720143469503 0 0,0 -0.683527715161606,0.3727138096675188 l -11.414876300286437 -21.36955517568038" fill="red" stroke="none" /><path d="M 109.89434966115114 118.52300852407294 l 22.812479110794786 42.70677300637523 a69.41774120917361,69.41774120917361 0 0,0 -1.0588159064456997,0.5539224395222143 l -22.07397230182259 -43.09312486484216" fill="red" stroke="none" /><path d="M 109.57404056367764 118.69057910512821 l 11.623675708396467 22.6919061889465 a46.49573382866072,46.49573382866072 0 0,0 -0.7154721283882949,0.35875257813163325 l -11.231349672325411 -22.888626607987433" fill="red" stroke="none" /><path d="M 108.2653958097858 119.30500536409082 l 3.3783898326305506 7.890709089056056 a29.583519545578802,29.583519545578802 0 0,0 -0.4698546712840586,0.19639929070307863 l -3.242063701849031 -7.947693422779108" fill="red" stroke="none" /><path d="M 107.59598834532513 119.57807347666477 l 3.5833735899375756 9.235868757133414 a30.906656246385822,30.906656246385822 0 0,0 -0.49764099302992915,0.18816524211682165 l -3.4238623761473717 -9.296182249356866" fill="red" stroke="none" /><path d="M 106.91757812671514 119.82793768551818 l 10.137119895449857 29.05614911978621 a51.77370633261418,51.77370633261418 0 0,0 -0.8439860340796855,0.2863258862230259 l -9.635464128432945 -29.226337992907357" fill="red" stroke="none" /><path d="M 105.88484417918355 120.15858648285463 l 9.684400352085923 33.174000209330394 a55.55867329728002,55.55867329728002 0 0,0 -0.9203395610277445,0.2600971529698381 l -9.111929622953573 -33.33578615563876" fill="red" stroke="none" /><path d="M 105.53697534728816 120.25689768951611 l 8.400032945587201 30.731328441016647 a52.858673877557884,52.858673877557884 0 0,0 -0.8797434143103202,0.23234823158282197 l -7.869799088465383 -30.871368021903052" fill="red" stroke="none" /><path d="M 105.18746579009965 120.34920634021253 l 7.937603057826663 31.137347021870905 a53.13315922631997,53.13315922631997 0 0,0 -0.8882010008388367,0.2182981961831989 l -7.400448772244615 -31.269366476368134" fill="red" stroke="none" /><path d="M 104.83641907484287 120.43548508189849 l 6.403226469967018 27.055769357058864 a48.803164653111914,48.803164653111914 0 0,0 -0.8191491517183067,0.1864356800104158 l -5.93655716885585 -27.161981770646964" fill="red" stroke="none" /><path d="M 104.48393922423573 120.51570834832081 l 5.881958063954834 26.9121703311488 a48.54745619106942,48.54745619106942 0 0,0 -0.8179287869658841,0.17140492988133565 l -5.417837815559572 -27.009431241756676" fill="red" stroke="none" /><path d="M 104.13013068566511 120.58985236759428 l 6.617128626369588 32.988230127248634 a54.64535210376367,54.64535210376367 0 0,0 -0.9238509385699214,0.177058231160691 l -6.048310073227963 -33.09724555675779" fill="red" stroke="none" /><path d="M 103.41894727170886 120.7198165907248 l 5.116549865232335 31.007782910885222 a52.427085190516706,52.427085190516706 0 0,0 -0.8916702193139809,0.1392605501325955 l -4.582043782309836 -31.091261768364923" fill="red" stroke="none" /><path d="M 103.06178313531738 120.77559828337769 l 4.131404418469096 28.033467672552312 a49.336263201364105,49.336263201364105 0 0,0 -0.8412335842899895,0.11658730944471504 l -3.648242242992276 -28.10042954748963" fill="red" stroke="none" /><path d="M 102.70371172650421 120.8252237178851 l 5.661348554437473 43.606294648699205 a64.9722617162684,64.9722617162684 0 0,0 -1.1103220472522568,0.13444453716183655 l -4.909899084133836 -43.697284714586395" fill="red" stroke="none" /><path d="M 102.34483914955558 120.86867818915974 l 3.9020364083646992 34.72747463465923 a55.94600667648743,55.94600667648743 0 0,0 -0.9579219214738192,0.09929252386719253 l -3.3036818902852776 -34.78949652698218" fill="red" stroke="none" /><path d="M 101.98527174616119 120.90594882070398 l 2.189839764090837 23.060156939295116 a44.163899418217866,44.163899418217866 0 0,0 -0.7574228250553422,0.06535362841481057 l -1.792572621293953 -23.09443481998859" fill="red" stroke="none" /><path d="M 101.62511606390274 120.93702456842531 l 0.5388146327577217 6.941765855654412 a27.962645646821564,27.962645646821564 0 0,0 -0.48020815844699,0.033117966140044974 l -0.4192437135318013 -6.950012166310742" fill="red" stroke="none" /><path d="M 100.90346689309514 120.98055641714683 l 1.2317398298933204 28.60380074779587 a49.630309118627295,49.630309118627295 0 0,0 -0.8538295535550461,0.02940761621611215 l -0.739189924663622 -28.620765162438076" fill="red" stroke="none" /><line stroke="#e1ed5e" stroke-width="0.3" x1="102.19456741930631" x2="102.32365962044197" y1="184.97166512339345" y2="189.96999836594603" /><path d="M 102.22038585953345 185.97133177190398 a86.0,86.0 0 0,1 -42.740103519485714,-10.115201625700543" fill="none" id="id79" stroke="none" /><text fill="#e1ed5e" style="font-size:6.75px; font-family:Arial;" text-anchor="middle"><textPath startOffset="22.20632615414155" xlink:href="#id79">July</textPath></text><path d="M 100.54218724476979 120.99299961872073 l 0.7592972416505652 29.399302285751663 a50.40910585499296,50.40910585499296 0 0,0 -0.8676134691648564,0.01493675269142569 l -0.253124082593041 -29.40801651572225" fill="red" stroke="none" /><path d="M 100.18074693466247 120.99922214144158 l 0.21055612240496077 24.462460709938618 a45.463366854666035,45.463366854666035 0 0,0 -0.7826061141348156,0.0 l 0.21055612240494392 -24.462460709938618" fill="red" stroke="none" /><path d="M 99.81925306533755 120.99922214144158 l -0.23363004692032366 27.143194784229838 a48.1442002293946,48.1442002293946 0 0,0 -0.8286311743229462,-0.014265637133528315 l 0.7008209111359378 -27.135151669817148" fill="red" stroke="none" /><path d="M 99.45781275523022 120.99299961872073 l -0.6429610264387303 24.894869278254323 a45.90317078732927,45.90317078732927 0 0,0 -0.7897086380507199,-0.027199162237532448 l 1.0713900161640932 -24.8801133175907" fill="red" stroke="none" /><path d="M 98.37488393609728 120.93702456842531 l -1.9858894844011563 25.58501380217324 a46.66196968865894,46.66196968865894 0 0,0 -0.8002654061305935,-0.06905026658216286 l 2.4259992082732915 -25.547039283312415" fill="red" stroke="none" /><path d="M 98.01472825383883 120.90594882070398 l -1.4452319614030968 15.219047708487269 a36.287514793957605,36.287514793957605 0 0,0 -0.6213241652428312,-0.06440279016865358 l 1.7069887232515213 -15.191915549862856" fill="red" stroke="none" /><path d="M 97.65516085044442 120.86867818915974 l -2.6233709567203647 23.347564918029217 a44.494485795142495,44.494485795142495 0 0,0 -0.7603738465383876,-0.09207068356501927 l 3.0248722263101415 -23.298948705738848" fill="red" stroke="none" /><path d="M 97.2962882734958 120.8252237178851 l -3.3165115614824034 25.545288187999553 a46.75967774537166,46.75967774537166 0 0,0 -0.797300175520715,-0.110498539311421 l 3.7557403281899497 -25.48441508319553" fill="red" stroke="none" /><path d="M 96.93821686468263 120.77559828337769 l -1.2699343043338973 8.617084812045979 a29.710159803087283,29.710159803087283 0 0,0 -0.5053049318153627,-0.07891823822877084 l 1.4180750997577773 -8.593948266470102" fill="red" stroke="none" /><path d="M 95.86986931433489 120.58985236759428 l -5.212055322982537 25.9835481730435 a47.501137642574946,47.501137642574946 0 0,0 -0.8003003852267137,-0.167710726899157 l 5.658547169638637 -25.8899814654178" fill="red" stroke="none" /><path d="M 95.51606077576429 120.51570834832081 l -5.45315044235917 24.950214188959368 a46.53918631871328,46.53918631871328 0 0,0 -0.7811488305237041,-0.17778693062494338 l 5.881819422275736 -24.85265052475674" fill="red" stroke="none" /><path d="M 95.16358092515715 120.4354850818985 l -12.207296565014957 51.57990302004168 a74.00475907862548,74.00475907862548 0 0,0 -1.2371013137105498,-0.3040494043846274 l 13.093351163468716 -51.36213235734302" fill="red" stroke="none" /><path d="M 94.81253420990036 120.34920634021253 l -6.993660564810944 27.4344829759372 a49.31187284961523,49.31187284961523 0 0,0 -0.8207128973240554,-0.21675773552672992 l 7.464863904946489 -27.31003389110689" fill="red" stroke="none" /><path d="M 94.46302465271185 120.25689768951611 l -7.034361330928673 25.73505006871669 a47.679112454754176,47.679112454754176 0 0,0 -0.78981319787829,-0.22320909895120083 l 7.476305696911577 -25.610152176426965" fill="red" stroke="none" /><path d="M 94.11515582081647 120.15858648285463 l -8.216556337918474 28.145887382213918 a50.320688508056165,50.320688508056165 0 0,0 -0.829392837906446,-0.24988925844801876 l 8.699824150265167 -28.000282754660173" fill="red" stroke="none" /><path d="M 93.42475214034765 119.94407469862007 l -8.169381263054094 24.779408111996638 a47.091336811325405,47.091336811325405 0 0,0 -0.7676566622363845,-0.2604308190591333 l 8.594707658227705 -24.63511430603938" fill="red" stroke="none" /><path d="M 93.08242187328487 119.8279376855182 l -9.5734920308024 27.440615767890712 a50.06267612221644,50.06267612221644 0 0,0 -0.8112071155675954,-0.29087001027580084 l 10.044418706999721 -27.271758216574955" fill="red" stroke="none" /><path d="M 92.7421414339146 119.70592522655815 l -12.29299155122037 33.37689348908281 a56.568731496357216,56.568731496357216 0 0,0 -0.9108367948920997,-0.3444005386217754 l 12.865698566872751 -33.1603447003544" fill="red" stroke="none" /><path d="M 92.40401165467489 119.57807347666478 l -8.341666247453146 21.500000695888676 a44.0615139508904,44.0615139508904 0 0,0 -0.7047301854186536,-0.28042668475155347 l 8.710517508913657 -21.353227166731056" fill="red" stroke="none" /><path d="M 92.06813273071674 119.44442032107085 l -9.860660026477744 24.172721465035366 a47.106571570850846,47.106571570850846 0 0,0 -0.7481612411478199,-0.3127314594774631 l 10.275292727123027 -23.99940496253793" fill="red" stroke="none" /><path d="M 91.7346041902142 119.30500536409082 l -1.4685936713316592 3.430109017787287 a24.7312752840525,24.7312752840525 0 0,0 -0.38990542551893953,-0.17092308028327777 l 1.527419771508342 -3.404321384209557" fill="red" stroke="none" /><path d="M 91.40352486487194 119.15986991738527 l -6.415555813163733 14.299025227868702 a36.672315682726804,36.672315682726804 0 0,0 -0.5737156843379111,-0.26336473170217617 l 6.660739493269063 -14.186473425832451" fill="red" stroke="none" /><path d="M 91.07499286063937 119.00905698771935 l -8.401411380389456 17.893868902668217 a40.76801096439432,40.76801096439432 0 0,0 -0.6326561106725402,-0.3037133795713544 l 8.70818015906224 -17.7466012465973" fill="red" stroke="none" /><path d="M 90.7491055286396 118.85261126421891 l -11.21664083131421 22.85865112155315 a46.46234401298491,46.46234401298491 0 0,0 -0.7149583289378744,-0.35849494842089075 l 11.608453067934846 -22.66218833222296" fill="red" stroke="none" /><path d="M 90.42595943632237 118.69057910512821 l -13.335439577201301 26.033636129028093 a50.250370233824796,50.250370233824796 0 0,0 -0.7664595589193272,-0.40097541611072046 l 13.781590038647124 -25.800231293972654" fill="red" stroke="none" /><path d="M 90.10565033884886 118.52300852407294 l -16.17589458479996 30.282559596129683 a55.33209841113279,55.33209841113279 0 0,0 -0.8362450384349042,-0.4559874708473875 l 16.694762435103502 -29.99963147352253" fill="red" stroke="none" /><line stroke="#e1ed5e" stroke-width="0.3" x1="58.666819895761336" x2="56.23545636021788" y1="174.27360380694188" y2="178.64263932499728" /><path d="M 58.180547188652646 175.14741091055294 a86.0,86.0 0 0,1 -31.652253787137756,-30.449443065178592" fill="none" id="id80" stroke="none" /><text fill="#e1ed5e" style="font-size:6.75px; font-family:Arial;" text-anchor="middle"><textPath startOffset="22.20632615414155" xlink:href="#id80">August</textPath></text><path d="M 89.7882731507175 118.34994917583269 l -11.961229197135625 21.49371512648193 a45.597780262551495,45.597780262551495 0 0,0 -0.6825580214851857,-0.38757425826940023 l 12.329435985542016 -21.284637702417896" fill="red" stroke="none" /><path d="M 89.4739219176387 118.17145234162733 l -11.70706570911953 20.2102231171976 a44.35612352177798,44.35612352177798 0 0,0 -0.6573833693624295,-0.38839368193806356 l 12.053216949510341 -20.00571086296579" fill="red" stroke="none" /><path d="M 89.1626897886671 117.98757091392108 l -9.483447481046184 15.740454111517394 a39.37655222729623,39.37655222729623 0 0,0 -0.577561767664715,-0.35478561037805534 l 9.752988448643208 -15.57488003431096" fill="red" stroke="none" /><path d="M 88.8546689885994 117.79835938074946 l -17.692885138848922 28.254371975263695 a54.33688228153718,54.33688228153718 0 0,0 -0.7884493738675459,-0.5032256945932605 l 18.176616314763393 -27.945631851846628" fill="red" stroke="none" /><path d="M 88.54995079064634 117.60387380957326 l -9.451534843913741 14.531258657222324 a38.33461822679733,38.33461822679733 0 0,0 -0.5500566850418218,-0.36454757717144004 l 9.700266227695524 -14.366413058959566" fill="red" stroke="none" /><path d="M 88.24862548938628 117.40417183066458 l -6.069026271820408 8.988427352407111 a31.8455016554121,31.8455016554121 0 0,0 -0.4516649249426117,-0.3106592538761947 l 6.2228480813859095 -8.882627309165816" fill="red" stroke="none" /><path d="M 87.95078237400918 117.19931262002967 l -17.466774383586085 24.9324497582987 a51.441998264193955,51.441998264193955 0 0,0 -0.7208559185712988,-0.5143115579889158 l 17.89335763000627 -24.628093938465565" fill="red" stroke="none" /><path d="M 87.65650970185807 116.9893568818739 l -13.584410718834286 18.697337313658338 a44.11117991792501,44.11117991792501 0 0,0 -0.6104462788914194,-0.45159356341447954 l 13.90424196814427 -18.46073380150409" fill="red" stroke="none" /><path d="M 87.36589467227662 116.77436683061367 l -1.94620915842763 2.583991941315228 a24.234925724205986,24.234925724205986 0 0,0 -0.3310620932080418,-0.2538442958600585 l 1.9903999801291585 -2.5501083036278027" fill="red" stroke="none" /><path d="M 86.79598089348748 116.32954008644616 l -13.207858239119393 16.3342879794396 a42.006105851869336,42.006105851869336 0 0,0 -0.558340901274785,-0.45947655009411104 l 13.487069268938868 -16.10451631048831" fill="red" stroke="none" /><line stroke="#e1ed5e" stroke-width="0.3" x1="26.63291911575756" x2="22.317208475507996" y1="142.92168965132927" y2="145.44649492493687" /><path d="M 25.769776987707644 143.4266507060508 a86.0,86.0 0 0,1 -11.730757126820373,-40.83630448921669" fill="none" id="id81" stroke="none" /><text fill="#e1ed5e" style="font-size:6.75px; font-family:Arial;" text-anchor="middle"><textPath startOffset="21.46611528233685" xlink:href="#id81">September</textPath></text><line stroke="#e1ed5e" stroke-width="0.3" x1="15.007084014347285" x2="10.007500721073583" y1="101.09737516637583" y2="101.16192664675087" /><path d="M 14.007167355692545 101.11028546245083 a86.0,86.0 0 0,1 10.666146001902534,-42.60595125391555" fill="none" id="id82" stroke="none" /><text fill="#e1ed5e" style="font-size:6.75px; font-family:Arial;" text-anchor="middle"><textPath startOffset="22.20632615414155" xlink:href="#id82">October</textPath></text><line stroke="#e1ed5e" stroke-width="0.3" x1="26.266209847984243" x2="21.928928074336255" y1="57.711370442889674" y2="55.22380399835377" /><path d="M 25.398753493254645 57.213857153982495 a86.0,86.0 0 0,1 29.58750427330803,-30.492523968695096" fill="none" id="id83" stroke="none" /><text fill="#e1ed5e" style="font-size:6.75px; font-family:Arial;" text-anchor="middle"><textPath startOffset="21.46611528233685" xlink:href="#id83">November</textPath></text><line stroke="#e1ed5e" stroke-width="0.3" x1="56.762969772571076" x2="54.21961505331055" y1="26.818313649435495" y2="22.513508569990535" /><path d="M 56.25429882871897 25.957352633546506 a86.0,86.0 0 0,1 42.265352541879196,-11.944610805530505" fill="none" id="id84" stroke="none" /><text fill="#e1ed5e" style="font-size:6.75px; font-family:Arial;" text-anchor="middle"><textPath startOffset="22.20632615414155" xlink:href="#id84">December</textPath></text></svg>